<svg version="1.1" xmlns="http://www.w3.org/2000/svg" viewBox="0 0 1758 1197" width="1758" height="1197" filter="invert(93%) hue-rotate(180deg)">
  <!-- svg-source:excalidraw -->
  
  <defs>
    <style class="style-fonts">
      @font-face {
        font-family: "Virgil";
        src: url("https://excalidraw.com/Virgil.woff2");
      }
      @font-face {
        font-family: "Cascadia";
        src: url("https://excalidraw.com/Cascadia.woff2");
      }
    </style>
    
  </defs>
  <rect x="0" y="0" width="1758" height="1197" fill="#ffffff"></rect><g stroke-linecap="round" transform="translate(990 10) rotate(0 198 41)"><path d="M20.5 0 M20.5 0 C101.15 -0.92, 182.69 -0.51, 375.5 0 M20.5 0 C132.5 -2.12, 244.55 -1.53, 375.5 0 M375.5 0 C390.9 -1.09, 397.56 7.58, 396 20.5 M375.5 0 C389.72 -1.58, 397.33 6.47, 396 20.5 M396 20.5 C394.35 30.55, 396.59 41.65, 396 61.5 M396 20.5 C396.95 30.68, 396.25 42.02, 396 61.5 M396 61.5 C397.62 73.43, 388.87 81.95, 375.5 82 M396 61.5 C398.23 73.95, 391.41 81.42, 375.5 82 M375.5 82 C273.25 81.47, 169.04 82.3, 20.5 82 M375.5 82 C295.71 83.22, 217.5 83.08, 20.5 82 M20.5 82 C4.84 82.9, 1.31 74.21, 0 61.5 M20.5 82 C7.49 83.19, 0.92 73.82, 0 61.5 M0 61.5 C-0.79 49.1, -1.18 35.71, 0 20.5 M0 61.5 C0.58 48.85, 0.12 37.05, 0 20.5 M0 20.5 C-1.81 6.25, 8.69 -0.21, 20.5 0 M0 20.5 C-1.38 4.58, 6.73 -1.86, 20.5 0" stroke="#1e1e1e" stroke-width="1" fill="none"></path></g><g transform="translate(1053.3583374023438 38.5) rotate(0 134.64166259765625 12.5)"><text x="134.64166259765625" y="0" font-family="Virgil, Segoe UI Emoji" font-size="20px" fill="#1e1e1e" text-anchor="middle" style="white-space: pre;" direction="ltr" dominant-baseline="text-before-edge">Digital-to-digital conversion</text></g><g stroke-linecap="round" transform="translate(424 215) rotate(0 124 35.5)"><path d="M17.75 0 M17.75 0 C82.48 2.11, 145.04 -0.84, 230.25 0 M17.75 0 C82.8 0.58, 148.23 0.81, 230.25 0 M230.25 0 C241.3 -0.93, 247.87 5.59, 248 17.75 M230.25 0 C240.36 -1.71, 249.34 4.39, 248 17.75 M248 17.75 C248.93 31.18, 249.28 39.69, 248 53.25 M248 17.75 C247.94 31.25, 247.42 43.7, 248 53.25 M248 53.25 C248.78 65.46, 241.27 70.5, 230.25 71 M248 53.25 C249.47 66.23, 241.85 71.35, 230.25 71 M230.25 71 C159.29 72.61, 86.97 72.17, 17.75 71 M230.25 71 C155.81 71.64, 82.29 71.38, 17.75 71 M17.75 71 C7.47 72.02, 1.84 65.62, 0 53.25 M17.75 71 C7.08 70.32, -0.82 66.96, 0 53.25 M0 53.25 C0.91 46.78, -1.96 38.31, 0 17.75 M0 53.25 C-0.5 42.6, 0.52 31.85, 0 17.75 M0 17.75 C-1.79 6.04, 5.34 -0.26, 17.75 0 M0 17.75 C-1.01 6.66, 5.73 1.8, 17.75 0" stroke="#1e1e1e" stroke-width="1" fill="none"></path></g><g transform="translate(496.56666564941406 238) rotate(0 51.43333435058594 12.5)"><text x="51.43333435058594" y="0" font-family="Virgil, Segoe UI Emoji" font-size="20px" fill="#1e1e1e" text-anchor="middle" style="white-space: pre;" direction="ltr" dominant-baseline="text-before-edge">Line coding</text></g><g stroke-linecap="round" transform="translate(1092 246) rotate(0 127.5 36.5)"><path d="M18.25 0 M18.25 0 C102.54 -0.75, 188.63 -0.14, 236.75 0 M18.25 0 C64.14 -0.9, 108.83 -1.68, 236.75 0 M236.75 0 C247.42 -1.48, 253.92 6.52, 255 18.25 M236.75 0 C249.38 -1.5, 255.54 4.65, 255 18.25 M255 18.25 C253.61 30.09, 255.61 44.72, 255 54.75 M255 18.25 C255.22 26.92, 254.45 33.43, 255 54.75 M255 54.75 C254.44 67.99, 249.5 74.36, 236.75 73 M255 54.75 C252.87 65.08, 248.3 74.02, 236.75 73 M236.75 73 C186.55 73.65, 140.07 74.44, 18.25 73 M236.75 73 C160.43 71.1, 84.06 72.35, 18.25 73 M18.25 73 C4.86 72.29, -1.18 67.99, 0 54.75 M18.25 73 C4.38 73.58, -0.24 68.88, 0 54.75 M0 54.75 C2.03 44.16, 0.24 34.99, 0 18.25 M0 54.75 C-0.24 44.31, 0.59 32.86, 0 18.25 M0 18.25 C-1.62 7.64, 6.63 1.68, 18.25 0 M0 18.25 C0.43 7.15, 7.48 1.15, 18.25 0" stroke="#1e1e1e" stroke-width="1" fill="none"></path></g><g transform="translate(1161.058334350586 270) rotate(0 58.44166564941406 12.5)"><text x="58.44166564941406" y="0" font-family="Virgil, Segoe UI Emoji" font-size="20px" fill="#1e1e1e" text-anchor="middle" style="white-space: pre;" direction="ltr" dominant-baseline="text-before-edge">Block coding</text></g><g stroke-linecap="round" transform="translate(1439 246) rotate(0 130 36)"><path d="M18 0 M18 0 C102.41 0.41, 185.8 0.7, 242 0 M18 0 C106.44 -1.62, 194.83 -1.79, 242 0 M242 0 C252.43 0.01, 260.92 7.84, 260 18 M242 0 C252.08 -1.45, 261.61 4.17, 260 18 M260 18 C261.33 32.35, 261.63 45.19, 260 54 M260 18 C260.12 28.81, 260.52 39.36, 260 54 M260 54 C260.86 67.17, 255 70.6, 242 72 M260 54 C262.2 63.9, 254.39 73.88, 242 72 M242 72 C193.98 73, 150.13 73.45, 18 72 M242 72 C193.07 71.48, 146.46 72.8, 18 72 M18 72 C5.99 73.96, -0.29 66.07, 0 54 M18 72 C8.27 72.97, 0.39 63.95, 0 54 M0 54 C-1.24 42.35, -0.74 33.2, 0 18 M0 54 C-0.17 43.59, 0.1 32.23, 0 18 M0 18 C0.34 7.99, 7.3 -0.07, 18 0 M0 18 C-0.65 6.6, 8.17 -2.13, 18 0" stroke="#1e1e1e" stroke-width="1" fill="none"></path></g><g transform="translate(1521.0166664123535 269.5) rotate(0 47.983333587646484 12.5)"><text x="47.983333587646484" y="0" font-family="Virgil, Segoe UI Emoji" font-size="20px" fill="#1e1e1e" text-anchor="middle" style="white-space: pre;" direction="ltr" dominant-baseline="text-before-edge">Scrambling</text></g><g stroke-linecap="round"><g transform="translate(1068.2437764155743 98) rotate(0 -196.11154686491443 54.42484169638817)"><path d="M-1.18 -0.83 C-66.49 17.14, -326.43 89.87, -391.37 108.31 M0.4 1.35 C-65.15 19.45, -327.28 91.9, -392.62 109.68" stroke="#1e1e1e" stroke-width="1" fill="none"></path></g><g transform="translate(1068.2437764155743 98) rotate(0 -196.11154686491443 54.42484169638817)"><path d="M-369.53 91.36 C-376.84 97.85, -382.66 104.4, -390.9 109.84 M-367.63 92.76 C-376.61 98.92, -386.77 105.82, -393.13 109.27" stroke="#1e1e1e" stroke-width="1" fill="none"></path></g><g transform="translate(1068.2437764155743 98) rotate(0 -196.11154686491443 54.42484169638817)"><path d="M-364.1 111.15 C-373.32 110.92, -380.96 110.81, -390.9 109.84 M-362.19 112.55 C-373.47 111.04, -385.73 110.28, -393.13 109.27" stroke="#1e1e1e" stroke-width="1" fill="none"></path></g></g><mask></mask><g stroke-linecap="round"><g transform="translate(1164.5223026825956 99) rotate(0 3.0102926369806937 69.12105896995403)"><path d="M0.44 0.49 C1.7 23.54, 5.77 115.58, 6.81 138.53 M-0.79 -0.29 C0.38 22.37, 4.77 113.37, 5.88 136.69" stroke="#1e1e1e" stroke-width="1" fill="none"></path></g><g transform="translate(1164.5223026825956 99) rotate(0 3.0102926369806937 69.12105896995403)"><path d="M-4.9 109.07 C-2.01 115.35, 0.19 122.74, 4.29 136.64 M-6.68 108.97 C-1.37 117.45, 0.22 124.76, 6.55 136.28" stroke="#1e1e1e" stroke-width="1" fill="none"></path></g><g transform="translate(1164.5223026825956 99) rotate(0 3.0102926369806937 69.12105896995403)"><path d="M15.6 108.09 C13.62 114.68, 10.96 122.3, 4.29 136.64 M13.82 107.99 C13.36 116.89, 9.19 124.48, 6.55 136.28" stroke="#1e1e1e" stroke-width="1" fill="none"></path></g></g><mask></mask><g stroke-linecap="round"><g transform="translate(1218.623958815284 101) rotate(0 156.09824872006322 66.7696625874378)"><path d="M-0.82 0.74 C51.5 22.7, 260.84 110.14, 313.01 132.29 M0.96 0.09 C53.18 22.14, 259.69 111.53, 311.97 133.45" stroke="#1e1e1e" stroke-width="1" fill="none"></path></g><g transform="translate(1218.623958815284 101) rotate(0 156.09824872006322 66.7696625874378)"><path d="M283.25 131.51 C287.54 130.77, 296.45 133, 311.55 132.34 M281.62 132.27 C290.54 133.37, 301.6 132.67, 311.61 133.81" stroke="#1e1e1e" stroke-width="1" fill="none"></path></g><g transform="translate(1218.623958815284 101) rotate(0 156.09824872006322 66.7696625874378)"><path d="M291.31 112.64 C293.88 116.07, 300.99 122.52, 311.55 132.34 M289.68 113.39 C296.21 120.32, 304.76 125.49, 311.61 133.81" stroke="#1e1e1e" stroke-width="1" fill="none"></path></g></g><mask></mask><g stroke-linecap="round" transform="translate(1163 349) rotate(0 92 34.5)"><path d="M17.25 0 M17.25 0 C76.41 -2.49, 133.51 -0.48, 166.75 0 M17.25 0 C58.85 -2.25, 100.84 -1.88, 166.75 0 M166.75 0 C176.9 -0.67, 185.55 5.06, 184 17.25 M166.75 0 C180.52 1.42, 182.43 7.49, 184 17.25 M184 17.25 C185.34 30.5, 185.23 40.82, 184 51.75 M184 17.25 C183.34 29.5, 185.06 43, 184 51.75 M184 51.75 C185.38 62.28, 178.3 69.54, 166.75 69 M184 51.75 C182.78 63.04, 178.94 68.35, 166.75 69 M166.75 69 C133.42 68.09, 102.56 67.62, 17.25 69 M166.75 69 C122.61 67.04, 78.47 68.13, 17.25 69 M17.25 69 C4.35 70.32, -0.9 63.79, 0 51.75 M17.25 69 C4.63 69.17, -0.44 62.19, 0 51.75 M0 51.75 C0.96 44.35, 0.83 34.68, 0 17.25 M0 51.75 C0.46 42.24, -0.09 32.75, 0 17.25 M0 17.25 C-1.62 5.11, 7.1 1.63, 17.25 0 M0 17.25 C0.49 5.5, 6.16 1.5, 17.25 0" stroke="#1e1e1e" stroke-width="1" fill="none"></path></g><g transform="translate(1222.8833351135254 371) rotate(0 32.11666488647461 12.5)"><text x="32.11666488647461" y="0" font-family="Virgil, Segoe UI Emoji" font-size="20px" fill="#1e1e1e" text-anchor="middle" style="white-space: pre;" direction="ltr" dominant-baseline="text-before-edge">4B/5B</text></g><g stroke-linecap="round" transform="translate(1181 458) rotate(0 87.5 32)"><path d="M16 0 M16 0 C69.94 0.85, 119.87 0.08, 159 0 M16 0 C54.86 0.16, 93.17 0.29, 159 0 M159 0 C170.37 -0.81, 174.78 7.21, 175 16 M159 0 C167.67 1.18, 176.9 6.51, 175 16 M175 16 C173.93 24.77, 175.72 37.26, 175 48 M175 16 C174.95 25.61, 174.56 37.18, 175 48 M175 48 C174.33 57.83, 170.87 64.16, 159 64 M175 48 C176.66 58.02, 170.69 64.04, 159 64 M159 64 C102.11 63.1, 50.54 63.16, 16 64 M159 64 C118.62 63.29, 79.87 63.61, 16 64 M16 64 C7.15 65.98, -0.04 57.46, 0 48 M16 64 C3.54 63.99, 0.35 60.36, 0 48 M0 48 C-1.44 35.95, 0.57 29.48, 0 16 M0 48 C0.59 36.51, 0.31 25.94, 0 16 M0 16 C-0.64 7.21, 6.67 1.68, 16 0 M0 16 C1.85 3.44, 3.26 0.95, 16 0" stroke="#1e1e1e" stroke-width="1" fill="none"></path></g><g transform="translate(1231.724998474121 477.5) rotate(0 36.775001525878906 12.5)"><text x="36.775001525878906" y="0" font-family="Virgil, Segoe UI Emoji" font-size="20px" fill="#1e1e1e" text-anchor="middle" style="white-space: pre;" direction="ltr" dominant-baseline="text-before-edge">8B/10B</text></g><g stroke-linecap="round"><g transform="translate(1117 321) rotate(0 1.3371947748865978 84.18440836260095)"><path d="M0.99 0.55 C1.51 28.22, 2.41 139.46, 2.62 167.03 M0.06 -0.21 C0.42 28.19, 0.69 140.76, 1.47 168.58" stroke="#1e1e1e" stroke-width="1" fill="none"></path></g></g><mask></mask><g stroke-linecap="round"><g transform="translate(1120 491) rotate(0 27.167501541394813 0.9969046655111242)"><path d="M0.47 0.66 C9.64 0.81, 46.09 2.01, 55.07 2.04 M-0.74 -0.04 C8.35 0.31, 45.6 0.11, 54.69 0.46" stroke="#1e1e1e" stroke-width="1" fill="none"></path></g></g><mask></mask><g stroke-linecap="round"><g transform="translate(1114 390) rotate(0 25.678039652481743 -0.42870114623568156)"><path d="M-1.11 0.06 C7.72 -0.12, 43.45 -0.9, 52.46 -1.16 M0.51 -0.95 C9.18 -0.94, 42.61 0.2, 51.23 0.3" stroke="#1e1e1e" stroke-width="1" fill="none"></path></g></g><mask></mask><g stroke-linecap="round" transform="translate(67 542) rotate(0 71 39.5)"><path d="M19.75 0 M19.75 0 C40.77 0.63, 59.96 -0.82, 122.25 0 M19.75 0 C60.1 0.66, 99.26 0.69, 122.25 0 M122.25 0 C136.17 -1.57, 141.22 6.16, 142 19.75 M122.25 0 C134.16 1.72, 141.88 6, 142 19.75 M142 19.75 C142.85 32.52, 140.83 46.46, 142 59.25 M142 19.75 C142.31 28.16, 141.78 37.74, 142 59.25 M142 59.25 C140.32 72.3, 134.37 80.38, 122.25 79 M142 59.25 C142.79 74.09, 135.55 78.23, 122.25 79 M122.25 79 C94.6 79.4, 68.27 78.07, 19.75 79 M122.25 79 C85.03 78.47, 50.21 78.19, 19.75 79 M19.75 79 C6.69 79.19, -1.74 72.29, 0 59.25 M19.75 79 C4.63 78.03, -0.47 70.14, 0 59.25 M0 59.25 C0.33 47.08, -1.65 39.5, 0 19.75 M0 59.25 C-0.85 44.11, -0.27 30.68, 0 19.75 M0 19.75 C-0.87 5.51, 5.29 0.79, 19.75 0 M0 19.75 C-0.02 8.24, 7.97 0.46, 19.75 0" stroke="#1e1e1e" stroke-width="1" fill="none"></path></g><g transform="translate(73.73332977294922 569) rotate(0 64.26667022705078 12.5)"><text x="64.26667022705078" y="0" font-family="Virgil, Segoe UI Emoji" font-size="20px" fill="#1e1e1e" text-anchor="middle" style="white-space: pre;" direction="ltr" dominant-baseline="text-before-edge">Unipolar NRZ</text></g><g stroke-linecap="round" transform="translate(270 537) rotate(0 70.5 45)"><path d="M22.5 0 M22.5 0 C53.83 -1.22, 87.04 0.41, 118.5 0 M22.5 0 C60.1 -0.32, 96.51 -0.31, 118.5 0 M118.5 0 C132.86 -0.4, 140.67 6, 141 22.5 M118.5 0 C131.43 -2, 138.78 5.68, 141 22.5 M141 22.5 C141.92 35.84, 140.93 45.97, 141 67.5 M141 22.5 C141.49 37.53, 140.86 53.3, 141 67.5 M141 67.5 C141.52 82.6, 131.59 89.67, 118.5 90 M141 67.5 C141 83.34, 134.95 90.5, 118.5 90 M118.5 90 C97.91 90.1, 78.85 89.65, 22.5 90 M118.5 90 C85.95 90.17, 51.25 90.96, 22.5 90 M22.5 90 C6.79 90.66, -1.37 83.1, 0 67.5 M22.5 90 C7.31 88.2, 2.22 82.21, 0 67.5 M0 67.5 C0.57 53.52, -1.09 40.54, 0 22.5 M0 67.5 C0.93 56.54, -0.26 46.41, 0 22.5 M0 22.5 C1.67 5.72, 8.18 0.56, 22.5 0 M0 22.5 C-1.74 9.73, 7.93 1.33, 22.5 0" stroke="#1e1e1e" stroke-width="1" fill="none"></path></g><g transform="translate(288.55833435058594 569.5) rotate(0 51.94166564941406 12.5)"><text x="51.94166564941406" y="0" font-family="Virgil, Segoe UI Emoji" font-size="20px" fill="#1e1e1e" text-anchor="middle" style="white-space: pre;" direction="ltr" dominant-baseline="text-before-edge">Polar NRZ</text></g><g stroke-linecap="round" transform="translate(320 639) rotate(0 50.5 32.5)"><path d="M16.25 0 M16.25 0 C41.51 -0.65, 70.47 -0.81, 84.75 0 M16.25 0 C33.58 -1.08, 49.91 0.75, 84.75 0 M84.75 0 C95.99 -0.31, 100.93 3.72, 101 16.25 M84.75 0 C94.39 -0.67, 100.01 4.92, 101 16.25 M101 16.25 C99.38 24.66, 102.57 33.42, 101 48.75 M101 16.25 C102.02 29.06, 101.19 40.66, 101 48.75 M101 48.75 C101.05 58.21, 96.15 63.44, 84.75 65 M101 48.75 C99.84 57.63, 96.71 64.02, 84.75 65 M84.75 65 C64.98 65.19, 42.65 66.31, 16.25 65 M84.75 65 C66.54 66.21, 49.75 65.39, 16.25 65 M16.25 65 C4.29 66.67, -0.09 60.69, 0 48.75 M16.25 65 C6.18 63.66, 1.19 60.81, 0 48.75 M0 48.75 C1.41 35.24, 1.76 26.45, 0 16.25 M0 48.75 C-0.88 40.46, 0.2 31.17, 0 16.25 M0 16.25 C1.3 6.69, 3.85 1.39, 16.25 0 M0 16.25 C-1.61 7.41, 5.54 0.63, 16.25 0" stroke="#1e1e1e" stroke-width="1" fill="none"></path></g><g transform="translate(339.2083339691162 659) rotate(0 31.29166603088379 12.5)"><text x="31.29166603088379" y="0" font-family="Virgil, Segoe UI Emoji" font-size="20px" fill="#1e1e1e" text-anchor="middle" style="white-space: pre;" direction="ltr" dominant-baseline="text-before-edge">NRZ-L</text></g><g stroke-linecap="round" transform="translate(325 717) rotate(0 49.5 33.5)"><path d="M16.75 0 M16.75 0 C37.72 -0.17, 52.98 0.7, 82.25 0 M16.75 0 C31.66 -0.29, 45.05 -1.04, 82.25 0 M82.25 0 C91.45 0.15, 98.24 6.08, 99 16.75 M82.25 0 C92.24 1.48, 98.9 5.08, 99 16.75 M99 16.75 C99.74 28.64, 100.6 35.81, 99 50.25 M99 16.75 C99.15 28.32, 98.64 38.71, 99 50.25 M99 50.25 C99.25 61.67, 92.96 66.11, 82.25 67 M99 50.25 C97.39 61.75, 94.31 65.41, 82.25 67 M82.25 67 C65.26 65.59, 49.15 67.53, 16.75 67 M82.25 67 C64.03 67.92, 44.94 67.8, 16.75 67 M16.75 67 C7.4 67.02, 0.5 60.5, 0 50.25 M16.75 67 C3.86 64.91, -2.27 59.99, 0 50.25 M0 50.25 C0.27 40.49, -1.36 29.74, 0 16.75 M0 50.25 C-0.19 36.98, 0.32 25.08, 0 16.75 M0 16.75 C0.91 5.39, 5.56 1.8, 16.75 0 M0 16.75 C-1.98 5.96, 6.81 -2, 16.75 0" stroke="#1e1e1e" stroke-width="1" fill="none"></path></g><g transform="translate(343.75 738) rotate(0 30.75 12.5)"><text x="30.75" y="0" font-family="Virgil, Segoe UI Emoji" font-size="20px" fill="#1e1e1e" text-anchor="middle" style="white-space: pre;" direction="ltr" dominant-baseline="text-before-edge">NRZ-I</text></g><g stroke-linecap="round" transform="translate(317 1020) rotate(0 85.5 36)"><path d="M18 0 M18 0 C69.27 -0.4, 123.24 -2.98, 153 0 M18 0 C45.42 -0.48, 71.87 -0.55, 153 0 M153 0 C164.5 1.94, 169.39 6.15, 171 18 M153 0 C164.98 0.17, 173.22 8.02, 171 18 M171 18 C172.34 26.89, 172.44 31.42, 171 54 M171 18 C170.45 28.45, 170.42 38.63, 171 54 M171 54 C172.51 66.11, 163.51 70.36, 153 72 M171 54 C172.94 64.41, 166.94 71.07, 153 72 M153 72 C98.81 71.25, 45.96 71.4, 18 72 M153 72 C116.4 70.37, 80.36 72.11, 18 72 M18 72 C7.87 73.58, -1.89 65.26, 0 54 M18 72 C5.72 72.67, -1.59 67.33, 0 54 M0 54 C0.99 38.43, 0.45 25.88, 0 18 M0 54 C0.94 44.16, -0.25 32.08, 0 18 M0 18 C1.94 7.38, 6.06 -1.9, 18 0 M0 18 C-1.59 4.2, 6.89 0.15, 18 0" stroke="#1e1e1e" stroke-width="1" fill="none"></path></g><g transform="translate(347.2333335876465 1043.5) rotate(0 55.266666412353516 12.5)"><text x="55.266666412353516" y="0" font-family="Virgil, Segoe UI Emoji" font-size="20px" fill="#1e1e1e" text-anchor="middle" style="white-space: pre;" direction="ltr" dominant-baseline="text-before-edge">Manchester</text></g><g stroke-linecap="round" transform="translate(320 1107) rotate(0 105 40)"><path d="M20 0 M20 0 C64.7 -1.16, 111.69 -0.12, 190 0 M20 0 C54.61 -0.49, 91.07 -2.19, 190 0 M190 0 C204.77 -0.41, 209.31 7.9, 210 20 M190 0 C203.74 0.26, 212.05 8.74, 210 20 M210 20 C211.29 28.47, 210.98 39.49, 210 60 M210 20 C210.87 30.57, 210.41 42.52, 210 60 M210 60 C209.39 73.32, 202.3 80.72, 190 80 M210 60 C210.52 74.95, 204.79 81.8, 190 80 M190 80 C146.66 80.06, 104.31 79.91, 20 80 M190 80 C138.54 81.63, 86.82 81.45, 20 80 M20 80 C7.92 81.22, 1 71.64, 0 60 M20 80 C4.63 79.19, 0.8 71.99, 0 60 M0 60 C1.98 44.42, 0.75 32.34, 0 20 M0 60 C0.12 46.19, -0.22 32.45, 0 20 M0 20 C-0.4 8.18, 7.85 1.75, 20 0 M0 20 C-1.52 4.51, 4.82 -0.9, 20 0" stroke="#1e1e1e" stroke-width="1" fill="none"></path></g><g transform="translate(363.25 1122) rotate(0 61.75 25)"><text x="61.75" y="0" font-family="Virgil, Segoe UI Emoji" font-size="20px" fill="#1e1e1e" text-anchor="middle" style="white-space: pre;" direction="ltr" dominant-baseline="text-before-edge">Differential </text><text x="61.75" y="25" font-family="Virgil, Segoe UI Emoji" font-size="20px" fill="#1e1e1e" text-anchor="middle" style="white-space: pre;" direction="ltr" dominant-baseline="text-before-edge">Manchester</text></g><g stroke-linecap="round" transform="translate(509 542) rotate(0 64.5 42.5)"><path d="M21.25 0 M21.25 0 C42.84 -0.32, 65.8 -1.11, 107.75 0 M21.25 0 C54.5 -0.11, 87.77 -1.36, 107.75 0 M107.75 0 C123.24 0.5, 128.12 8.42, 129 21.25 M107.75 0 C119.79 0.59, 127.24 4.8, 129 21.25 M129 21.25 C128.97 31.75, 129.55 45.93, 129 63.75 M129 21.25 C129.72 34.01, 130.01 46.92, 129 63.75 M129 63.75 C129.02 79.22, 120.54 84.88, 107.75 85 M129 63.75 C128.23 78.48, 120.74 83.6, 107.75 85 M107.75 85 C80.54 85.71, 51.84 82.8, 21.25 85 M107.75 85 C87.49 84.57, 68.11 84.12, 21.25 85 M21.25 85 C6.89 83.6, -0.77 77.63, 0 63.75 M21.25 85 C8.58 83.88, 2.12 78.69, 0 63.75 M0 63.75 C-2.28 50.24, 0.17 41.85, 0 21.25 M0 63.75 C-0.1 53.17, 0.57 40.4, 0 21.25 M0 21.25 C0.26 8.37, 6.41 1.64, 21.25 0 M0 21.25 C-0.77 6.82, 6.24 -1.03, 21.25 0" stroke="#1e1e1e" stroke-width="1" fill="none"></path></g><g transform="translate(553.8333339691162 572) rotate(0 19.66666603088379 12.5)"><text x="19.66666603088379" y="0" font-family="Virgil, Segoe UI Emoji" font-size="20px" fill="#1e1e1e" text-anchor="middle" style="white-space: pre;" direction="ltr" dominant-baseline="text-before-edge">AMI</text></g><g stroke-linecap="round" transform="translate(511 653) rotate(0 92 41.5)"><path d="M20.75 0 M20.75 0 C63.73 -1.32, 107.45 -0.54, 163.25 0 M20.75 0 C56.89 -0.47, 92.93 -1.32, 163.25 0 M163.25 0 C177.18 -0.34, 184.28 5.06, 184 20.75 M163.25 0 C178.25 0.75, 182.2 8.89, 184 20.75 M184 20.75 C184.8 36.94, 185.18 51.78, 184 62.25 M184 20.75 C184.71 36.52, 184.56 52.04, 184 62.25 M184 62.25 C185.68 76.31, 176.97 82.11, 163.25 83 M184 62.25 C183.76 75.66, 178.68 85.25, 163.25 83 M163.25 83 C134.47 84.24, 105.07 83.51, 20.75 83 M163.25 83 C117.31 82.61, 69.92 83.77, 20.75 83 M20.75 83 C5.37 83.77, 0.22 74.81, 0 62.25 M20.75 83 C7.13 82.71, -1.84 76.54, 0 62.25 M0 62.25 C0.56 50.4, 0.71 44.16, 0 20.75 M0 62.25 C-0.44 53.02, 1.13 42.84, 0 20.75 M0 20.75 C-0.57 6.13, 6.56 1.3, 20.75 0 M0 20.75 C-2.29 7.57, 7.82 -1.32, 20.75 0" stroke="#1e1e1e" stroke-width="1" fill="none"></path></g><g transform="translate(532.8333358764648 682) rotate(0 70.16666412353516 12.5)"><text x="70.16666412353516" y="0" font-family="Virgil, Segoe UI Emoji" font-size="20px" fill="#1e1e1e" text-anchor="middle" style="white-space: pre;" direction="ltr" dominant-baseline="text-before-edge">Pseudoternary</text></g><g stroke-linecap="round" transform="translate(274 820) rotate(0 93.5 39.5)"><path d="M19.75 0 M19.75 0 C51.18 0.37, 86.4 2.78, 167.25 0 M19.75 0 C75.59 1.29, 133.58 -0.08, 167.25 0 M167.25 0 C179.07 -1.87, 187.84 6.01, 187 19.75 M167.25 0 C178.82 0.32, 185.17 6.83, 187 19.75 M187 19.75 C187.49 33.19, 185.56 47.3, 187 59.25 M187 19.75 C186.87 31.31, 187.34 43.83, 187 59.25 M187 59.25 C185.55 71.48, 178.61 77.62, 167.25 79 M187 59.25 C185.86 70.4, 178.19 80.05, 167.25 79 M167.25 79 C126.49 78.55, 87.19 79.24, 19.75 79 M167.25 79 C127.64 79.07, 87.45 77.99, 19.75 79 M19.75 79 C7.97 78.8, -0.17 70.75, 0 59.25 M19.75 79 C6.39 76.74, -0.14 71.8, 0 59.25 M0 59.25 C-1.64 48.42, -0.74 34.65, 0 19.75 M0 59.25 C0.75 44.61, -0.38 29.06, 0 19.75 M0 19.75 C-0.67 6.56, 7.85 -1.33, 19.75 0 M0 19.75 C1.01 4.54, 5.27 1.18, 19.75 0" stroke="#1e1e1e" stroke-width="1" fill="none"></path></g><g transform="translate(322 847) rotate(0 45.5 12.5)"><text x="45.5" y="0" font-family="Virgil, Segoe UI Emoji" font-size="20px" fill="#1e1e1e" text-anchor="middle" style="white-space: pre;" direction="ltr" dominant-baseline="text-before-edge">Polar RZ</text></g><g stroke-linecap="round" transform="translate(273 928) rotate(0 70.5 38)"><path d="M19 0 M19 0 C49.98 1.83, 82.48 -1.63, 122 0 M19 0 C42.22 0.36, 64.66 0.25, 122 0 M122 0 C134.65 0.47, 142.91 7.57, 141 19 M122 0 C134.63 0.02, 139.8 6.41, 141 19 M141 19 C141.26 28.39, 140.65 40.55, 141 57 M141 19 C141.71 30.57, 140.75 40.27, 141 57 M141 57 C142.6 68.79, 135.61 77.92, 122 76 M141 57 C140.37 71.49, 136.42 75.16, 122 76 M122 76 C90.54 75.01, 59.49 75.21, 19 76 M122 76 C94.89 77, 68.16 75.75, 19 76 M19 76 C4.38 77.28, -0.7 69.87, 0 57 M19 76 C5.61 77.62, -1.81 68.17, 0 57 M0 57 C-2.1 45.37, -1.09 36.38, 0 19 M0 57 C0.87 47.62, 0.07 38.44, 0 19 M0 19 C-0.34 8.01, 4.77 -0.56, 19 0 M0 19 C0.39 6.74, 5.81 -0.32, 19 0" stroke="#1e1e1e" stroke-width="1" fill="none"></path></g><g transform="translate(306.5999984741211 953.5) rotate(0 36.900001525878906 12.5)"><text x="36.900001525878906" y="0" font-family="Virgil, Segoe UI Emoji" font-size="20px" fill="#1e1e1e" text-anchor="middle" style="white-space: pre;" direction="ltr" dominant-baseline="text-before-edge">Biphase</text></g><g stroke-linecap="round" transform="translate(10 424) rotate(0 91.5 44)"><path d="M22 0 M22 0 C71.24 -1.02, 121.09 0.11, 161 0 M22 0 C52.28 -0.45, 85.03 1.35, 161 0 M161 0 C176.6 0.45, 182.89 6.67, 183 22 M161 0 C174.16 -0.29, 183.11 5.52, 183 22 M183 22 C183.95 35.38, 184.23 47, 183 66 M183 22 C182.81 37.77, 184.33 55.02, 183 66 M183 66 C181.16 81.48, 176.75 86.22, 161 88 M183 66 C184.86 78.84, 173.74 86.65, 161 88 M161 88 C112.05 87.26, 66.01 87.51, 22 88 M161 88 C111.93 88.02, 61.75 88.45, 22 88 M22 88 C7.39 86.73, 1.93 80.63, 0 66 M22 88 C7.18 88.86, -1.83 80.66, 0 66 M0 66 C-0.99 48.31, -1.85 31.92, 0 22 M0 66 C-0.66 54.45, 0.54 44.19, 0 22 M0 22 C1.88 9.26, 6.83 1.23, 22 0 M0 22 C-1.87 6.46, 8.73 -0.93, 22 0" stroke="#1e1e1e" stroke-width="1" fill="none"></path></g><g transform="translate(63.42499923706055 455.5) rotate(0 38.07500076293945 12.5)"><text x="38.07500076293945" y="0" font-family="Virgil, Segoe UI Emoji" font-size="20px" fill="#1e1e1e" text-anchor="middle" style="white-space: pre;" direction="ltr" dominant-baseline="text-before-edge">Unipolar</text></g><g stroke-linecap="round" transform="translate(224 419) rotate(0 94.5 46.5)"><path d="M23.25 0 M23.25 0 C73.56 0.62, 125.01 -1.55, 165.75 0 M23.25 0 C72.38 -0.65, 120.29 0.86, 165.75 0 M165.75 0 C180.8 1.17, 190.06 8.96, 189 23.25 M165.75 0 C179.41 -1.84, 188.61 5.75, 189 23.25 M189 23.25 C188.34 35.97, 190.42 45.57, 189 69.75 M189 23.25 C189.43 38.36, 189.29 51.22, 189 69.75 M189 69.75 C190.27 85.68, 181.77 94.21, 165.75 93 M189 69.75 C186.96 87.08, 179.78 91.06, 165.75 93 M165.75 93 C116.55 92.21, 69.53 92.69, 23.25 93 M165.75 93 C132.42 93.37, 99.63 93.79, 23.25 93 M23.25 93 C6.5 93.88, -1.74 84.77, 0 69.75 M23.25 93 C5.85 95.16, -0.26 83.81, 0 69.75 M0 69.75 C1.13 54.74, 0.22 40.99, 0 23.25 M0 69.75 C-0.65 51.65, 0.6 35.25, 0 23.25 M0 23.25 C-1.19 6.18, 7.6 -0.96, 23.25 0 M0 23.25 C-0.98 5.54, 7.83 1.37, 23.25 0" stroke="#1e1e1e" stroke-width="1" fill="none"></path></g><g transform="translate(292.75 453) rotate(0 25.75 12.5)"><text x="25.75" y="0" font-family="Virgil, Segoe UI Emoji" font-size="20px" fill="#1e1e1e" text-anchor="middle" style="white-space: pre;" direction="ltr" dominant-baseline="text-before-edge">Polar</text></g><g stroke-linecap="round" transform="translate(430 417) rotate(0 105.5 49)"><path d="M24.5 0 M24.5 0 C84.86 -1.44, 142.01 -0.83, 186.5 0 M24.5 0 C63.06 -0.81, 101.14 -0.87, 186.5 0 M186.5 0 C201.59 0.59, 212.99 9.02, 211 24.5 M186.5 0 C202.89 2.06, 210.89 9.53, 211 24.5 M211 24.5 C210.55 36.53, 211.46 47.03, 211 73.5 M211 24.5 C210.09 41.83, 211.65 57.51, 211 73.5 M211 73.5 C212.04 89.15, 203.02 99.81, 186.5 98 M211 73.5 C209.56 89.67, 204.19 99.38, 186.5 98 M186.5 98 C154.18 95.16, 119.78 98.23, 24.5 98 M186.5 98 C153.96 97.33, 121.7 96.76, 24.5 98 M24.5 98 C9.24 98.27, 0.99 91.77, 0 73.5 M24.5 98 C6.02 100.23, -1.54 90.75, 0 73.5 M0 73.5 C0.87 53.37, -0.01 36.07, 0 24.5 M0 73.5 C0.55 62.54, -0.64 49.1, 0 24.5 M0 24.5 C-0.52 9.15, 7.15 -1.52, 24.5 0 M0 24.5 C-1.3 10.39, 9.46 1.72, 24.5 0" stroke="#1e1e1e" stroke-width="1" fill="none"></path></g><g transform="translate(501.96666717529297 453.5) rotate(0 33.53333282470703 12.5)"><text x="33.53333282470703" y="0" font-family="Virgil, Segoe UI Emoji" font-size="20px" fill="#1e1e1e" text-anchor="middle" style="white-space: pre;" direction="ltr" dominant-baseline="text-before-edge">Bipolar</text></g><g stroke-linecap="round" transform="translate(655 428) rotate(0 112 40.5)"><path d="M20.25 0 M20.25 0 C83.59 0.61, 148.97 -0.93, 203.75 0 M20.25 0 C67.56 -0.85, 115.51 -1.15, 203.75 0 M203.75 0 C217.38 -1.86, 223.64 7.31, 224 20.25 M203.75 0 C216.01 1.82, 225.79 7.84, 224 20.25 M224 20.25 C223.85 34.61, 225.14 48.66, 224 60.75 M224 20.25 C223.25 34.38, 223.41 47.7, 224 60.75 M224 60.75 C222.09 73.38, 218.58 80.07, 203.75 81 M224 60.75 C222.7 72, 218.67 80.24, 203.75 81 M203.75 81 C151.73 79.28, 104.04 78.87, 20.25 81 M203.75 81 C137.08 82.45, 72.86 82.9, 20.25 81 M20.25 81 C7.11 79.88, -1.28 72.79, 0 60.75 M20.25 81 C7.89 81.9, -1.39 75.68, 0 60.75 M0 60.75 C0.12 45.6, -1.6 33.85, 0 20.25 M0 60.75 C-1.13 49.23, -1.14 39.65, 0 20.25 M0 20.25 C1.48 5.01, 5.05 0.64, 20.25 0 M0 20.25 C2.03 5.8, 7.63 0.79, 20.25 0" stroke="#1e1e1e" stroke-width="1" fill="none"></path></g><g transform="translate(721.75 456) rotate(0 45.25 12.5)"><text x="45.25" y="0" font-family="Virgil, Segoe UI Emoji" font-size="20px" fill="#1e1e1e" text-anchor="middle" style="white-space: pre;" direction="ltr" dominant-baseline="text-before-edge">Multilevel</text></g><g stroke-linecap="round" transform="translate(895 422) rotate(0 98.5 41)"><path d="M20.5 0 M20.5 0 C78.47 0.1, 138.97 -0.36, 176.5 0 M20.5 0 C51.41 -2.29, 84.22 -1.16, 176.5 0 M176.5 0 C188.77 0.9, 196.33 5.71, 197 20.5 M176.5 0 C191.21 1.32, 196.52 8.97, 197 20.5 M197 20.5 C197.98 32.01, 198.59 47.99, 197 61.5 M197 20.5 C197.4 36.05, 197.67 50.99, 197 61.5 M197 61.5 C196.08 73.18, 188.27 81.94, 176.5 82 M197 61.5 C199.19 76.2, 191.64 83.1, 176.5 82 M176.5 82 C140.28 83.42, 105.2 83.39, 20.5 82 M176.5 82 C141.39 80.83, 106.53 81.52, 20.5 82 M20.5 82 C5.4 81.09, 1.92 74.28, 0 61.5 M20.5 82 C7.88 79.85, -1.06 73.96, 0 61.5 M0 61.5 C1.53 49.51, 1.06 39.01, 0 20.5 M0 61.5 C-0.83 51.84, -0.43 41.56, 0 20.5 M0 20.5 C1.65 7.99, 8.76 1.57, 20.5 0 M0 20.5 C1.96 8.12, 8.48 0.16, 20.5 0" stroke="#1e1e1e" stroke-width="1" fill="none"></path></g><g transform="translate(922.7249984741211 450.5) rotate(0 70.7750015258789 12.5)"><text x="70.7750015258789" y="0" font-family="Virgil, Segoe UI Emoji" font-size="20px" fill="#1e1e1e" text-anchor="middle" style="white-space: pre;" direction="ltr" dominant-baseline="text-before-edge">Multitransition</text></g><g stroke-linecap="round"><g transform="translate(486 296) rotate(0 -183.81868351472542 59.00623213512824)"><path d="M0.59 -0.4 C-60.84 19.73, -306.39 99.85, -367.87 119.67 M-0.56 -1.66 C-62.11 18.22, -306.88 97.69, -368.23 117.9" stroke="#1e1e1e" stroke-width="1" fill="none"></path></g><g transform="translate(486 296) rotate(0 -183.81868351472542 59.00623213512824)"><path d="M-345.28 101.27 C-352.12 107.34, -362.51 114.72, -367.31 118.37 M-345.26 98.8 C-353.3 105.53, -361.36 111.7, -368.54 117.53" stroke="#1e1e1e" stroke-width="1" fill="none"></path></g><g transform="translate(486 296) rotate(0 -183.81868351472542 59.00623213512824)"><path d="M-338.91 120.78 C-347.85 119.9, -360.52 120.3, -367.31 118.37 M-338.89 118.31 C-349.13 118.38, -359.38 117.84, -368.54 117.53" stroke="#1e1e1e" stroke-width="1" fill="none"></path></g></g><mask></mask><g stroke-linecap="round"><g transform="translate(515 295) rotate(0 -70.40935124196113 55.15967773227021)"><path d="M0.01 0.29 C-23.59 18.81, -117.58 92.62, -140.83 110.92 M-1.44 -0.6 C-24.73 17.61, -115.47 90.6, -138.56 109.28" stroke="#1e1e1e" stroke-width="1" fill="none"></path></g><g transform="translate(515 295) rotate(0 -70.40935124196113 55.15967773227021)"><path d="M-122.56 82.22 C-127.22 93.86, -134.21 100.78, -140.07 109.64 M-122.24 84.03 C-126.78 91.86, -131.57 98.87, -137.7 108.34" stroke="#1e1e1e" stroke-width="1" fill="none"></path></g><g transform="translate(515 295) rotate(0 -70.40935124196113 55.15967773227021)"><path d="M-109.68 98.19 C-119.02 104, -130.71 105.08, -140.07 109.64 M-109.36 100.01 C-117.98 102.78, -126.78 104.83, -137.7 108.34" stroke="#1e1e1e" stroke-width="1" fill="none"></path></g></g><mask></mask><g stroke-linecap="round"><g transform="translate(540 288) rotate(0 -2.7594200837425547 59.095740936584775)"><path d="M0.15 0.33 C-0.5 19.88, -3.81 97.79, -4.47 117.48 M-1.24 -0.55 C-2.04 19.14, -5.12 99.26, -5.66 118.74" stroke="#1e1e1e" stroke-width="1" fill="none"></path></g><g transform="translate(540 288) rotate(0 -2.7594200837425547 59.095740936584775)"><path d="M-14.42 89.43 C-13.44 97.72, -9.46 106.57, -5.19 117.07 M-15.53 89.76 C-11.18 100.21, -8.3 110.78, -5.16 119.49" stroke="#1e1e1e" stroke-width="1" fill="none"></path></g><g transform="translate(540 288) rotate(0 -2.7594200837425547 59.095740936584775)"><path d="M6.09 90.13 C1.89 98.27, 0.69 106.94, -5.19 117.07 M4.98 90.45 C2.2 100.65, -2.06 110.97, -5.16 119.49" stroke="#1e1e1e" stroke-width="1" fill="none"></path></g></g><mask></mask><g stroke-linecap="round"><g transform="translate(568 293) rotate(0 67.1447077151388 64.04140430448575)"><path d="M-1.07 -0.08 C21.4 21.5, 112.69 107.67, 135.36 129.26 M0.56 -1.17 C22.86 20.04, 112.33 105.86, 134.6 127.27" stroke="#1e1e1e" stroke-width="1" fill="none"></path></g><g transform="translate(568 293) rotate(0 67.1447077151388 64.04140430448575)"><path d="M107.02 115.75 C117.06 119.57, 126.8 124.72, 136.25 125.7 M106.66 114.53 C114.27 118.07, 121.8 121.47, 135.41 127.4" stroke="#1e1e1e" stroke-width="1" fill="none"></path></g><g transform="translate(568 293) rotate(0 67.1447077151388 64.04140430448575)"><path d="M121.23 100.95 C126.33 109.76, 131.15 120.03, 136.25 125.7 M120.87 99.73 C124.73 107.32, 128.4 114.75, 135.41 127.4" stroke="#1e1e1e" stroke-width="1" fill="none"></path></g></g><mask></mask><g stroke-linecap="round"><g transform="translate(632 292) rotate(0 154.54387121187528 61.70657064301892)"><path d="M0.04 -1.07 C51.6 19.37, 258.53 102.64, 310.49 123.31 M-1.4 0.99 C49.86 21.51, 257.13 104.04, 309.28 124.48" stroke="#1e1e1e" stroke-width="1" fill="none"></path></g><g transform="translate(632 292) rotate(0 154.54387121187528 61.70657064301892)"><path d="M277.51 122.81 C289.94 125.32, 301.08 124.02, 311.23 126.42 M280.02 122.88 C290.91 124.71, 301.76 124.97, 308.78 123.72" stroke="#1e1e1e" stroke-width="1" fill="none"></path></g><g transform="translate(632 292) rotate(0 154.54387121187528 61.70657064301892)"><path d="M285.06 103.72 C294.62 113.75, 302.79 119.96, 311.23 126.42 M287.57 103.8 C295.54 112.99, 303.48 120.61, 308.78 123.72" stroke="#1e1e1e" stroke-width="1" fill="none"></path></g></g><mask></mask><g stroke-linecap="round"><g transform="translate(26 508) rotate(0 -0.4895905020043898 41.58076308486983)"><path d="M0.23 0.56 C-0.15 14.32, -1.47 69.45, -1.67 83.35 M-1.11 -0.18 C-1.16 13.12, 0.79 67.7, 0.69 81.41" stroke="#1e1e1e" stroke-width="1" fill="none"></path></g></g><mask></mask><g stroke-linecap="round"><g transform="translate(25 589) rotate(0 19.26128100573085 0.08884759110583218)"><path d="M0.98 -0.96 C7.3 -1.25, 32.24 -0.76, 38.49 -0.71 M0.03 1.14 C6.1 1.52, 31.04 0.6, 37.28 0.45" stroke="#1e1e1e" stroke-width="1" fill="none"></path></g></g><mask></mask><g stroke-linecap="round"><g transform="translate(245 510) rotate(0 1.9197574210353139 232.7529675121978)"><path d="M0.28 0.95 C1.27 78.25, 4.34 386.65, 4.87 464.06 M-1.03 0.4 C-0.03 77.81, 3.8 387.96, 4.38 465.11" stroke="#1e1e1e" stroke-width="1" fill="none"></path></g></g><mask></mask><g stroke-linecap="round"><g transform="translate(243 574) rotate(0 13.826639658417548 0.9429514736868327)"><path d="M0.19 0.16 C4.48 0.21, 21.99 1.2, 26.42 1.44 M-1.18 -0.8 C3.46 -0.08, 24.32 2.09, 28.83 2.69" stroke="#1e1e1e" stroke-width="1" fill="none"></path></g></g><mask></mask><g stroke-linecap="round"><g transform="translate(247 864) rotate(0 13.372133481130021 -0.4242601537890778)"><path d="M-1.14 -0.71 C3.63 -1, 23.13 -2.14, 27.88 -2.38 M0.47 1.53 C5.13 1.46, 22.57 -0.64, 26.87 -1.04" stroke="#1e1e1e" stroke-width="1" fill="none"></path></g></g><mask></mask><g stroke-linecap="round"><g transform="translate(248 974) rotate(0 12.945042655607665 -1.4236051934864236)"><path d="M-0.19 0 C4.48 -0.16, 23.09 -0.65, 27.64 -1.16 M-1.75 -1.05 C2.77 -1.51, 21.29 -2.63, 26.5 -2.84" stroke="#1e1e1e" stroke-width="1" fill="none"></path></g></g><mask></mask><g stroke-linecap="round"><g transform="translate(292 624) rotate(0 0.7548235190101025 65.9760244603828)"><path d="M0.31 -0.05 C0.82 21.89, 1.94 109.67, 2.49 131.7 M-0.98 -1.13 C-0.63 21, 0.58 110.65, 1.28 133.08" stroke="#1e1e1e" stroke-width="1" fill="none"></path></g></g><mask></mask><g stroke-linecap="round"><g transform="translate(298 755) rotate(0 15.327354425564408 0.22547641955316067)"><path d="M-1.13 0.9 C3.98 0.67, 26.57 -0.24, 31.78 -0.45 M0.48 0.33 C5.4 0.18, 25.89 0.77, 31.24 0.85" stroke="#1e1e1e" stroke-width="1" fill="none"></path></g></g><mask></mask><g stroke-linecap="round"><g transform="translate(291 672) rotate(0 16.597763282377286 1.2973307790234685)"><path d="M-0.13 -0.07 C5.53 0.19, 28.84 1.82, 34.85 2.14 M-1.66 -1.16 C3.75 -0.73, 27.6 3.04, 33.83 3.75" stroke="#1e1e1e" stroke-width="1" fill="none"></path></g></g><mask></mask><g stroke-linecap="round"><g transform="translate(295 1000) rotate(0 -0.03310906852337325 79.92976913414896)"><path d="M0.67 -0.67 C0.8 26.06, 0.24 133.75, -0.21 160.53 M-0.44 1.6 C-0.3 27.95, -0.87 132.07, -0.74 158.68" stroke="#1e1e1e" stroke-width="1" fill="none"></path></g></g><mask></mask><g stroke-linecap="round"><g transform="translate(295 1155) rotate(0 11.12458859644832 0.16052286583931163)"><path d="M-0.47 -0.22 C3.21 -0.31, 19.15 0.23, 22.72 0.46 M1.48 -1.39 C5.02 -0.8, 18.51 1.06, 22.15 1.71" stroke="#1e1e1e" stroke-width="1" fill="none"></path></g></g><mask></mask><g stroke-linecap="round"><g transform="translate(297 1053) rotate(0 8.358158016670501 -0.1705505295283274)"><path d="M0.6 0.72 C3.32 0.69, 14.5 0.66, 17.26 0.69 M-0.55 0.06 C1.95 -0.41, 13.62 -0.91, 16.45 -1.06" stroke="#1e1e1e" stroke-width="1" fill="none"></path></g></g><mask></mask><g stroke-linecap="round"><g transform="translate(469 513) rotate(0 2.013396596452253 94.85705333778634)"><path d="M0.59 1.14 C1.31 32.49, 4 156.46, 4.59 187.66 M-0.57 0.69 C-0.05 32.25, 2.24 158.11, 3.43 189.02" stroke="#1e1e1e" stroke-width="1" fill="none"></path></g></g><mask></mask><g stroke-linecap="round"><g transform="translate(467 699) rotate(0 20.97492752673105 -2.303357165772468)"><path d="M-0.39 -0.23 C6.13 -0.7, 33.15 -2.03, 40.1 -2.51 M1.61 -1.39 C8.41 -2.26, 35.83 -4.31, 42.34 -4.38" stroke="#1e1e1e" stroke-width="1" fill="none"></path></g></g><mask></mask><g stroke-linecap="round"><g transform="translate(468 581) rotate(0 20.389651134517067 0.6099142722226816)"><path d="M0.82 0.12 C7.47 0.29, 32.25 0.75, 38.87 0.71 M-0.2 -0.87 C6.89 -0.48, 34.28 1.85, 40.98 2.09" stroke="#1e1e1e" stroke-width="1" fill="none"></path></g></g><mask></mask><g stroke-linecap="round" transform="translate(757 537) rotate(0 61.5 31)"><path d="M15.5 0 M15.5 0 C52.3 1.14, 86.54 -0.23, 107.5 0 M15.5 0 C42.23 0.4, 70.36 1.07, 107.5 0 M107.5 0 C118.74 -1.82, 121.89 3.77, 123 15.5 M107.5 0 C117.29 0.79, 124.55 2.9, 123 15.5 M123 15.5 C124.7 25.45, 123.47 31.56, 123 46.5 M123 15.5 C123.83 25.85, 122.81 37.61, 123 46.5 M123 46.5 C123.83 55.8, 116.56 63.09, 107.5 62 M123 46.5 C125.17 56.54, 116.35 62.82, 107.5 62 M107.5 62 C87.5 61.42, 67.73 61.76, 15.5 62 M107.5 62 C79.59 61.5, 53.2 60.76, 15.5 62 M15.5 62 C4.38 60.5, 0.37 55, 0 46.5 M15.5 62 C5.12 59.77, -1.12 54.88, 0 46.5 M0 46.5 C0.5 36.01, -0.12 23.25, 0 15.5 M0 46.5 C-0.64 36.77, -0.72 28.38, 0 15.5 M0 15.5 C0.56 5.63, 6.09 0.72, 15.5 0 M0 15.5 C0.41 4.88, 6.76 0.27, 15.5 0" stroke="#1e1e1e" stroke-width="1" fill="none"></path></g><g transform="translate(794.3583335876465 555.5) rotate(0 24.141666412353516 12.5)"><text x="24.141666412353516" y="0" font-family="Virgil, Segoe UI Emoji" font-size="20px" fill="#1e1e1e" text-anchor="middle" style="white-space: pre;" direction="ltr" dominant-baseline="text-before-edge">2B1Q</text></g><g stroke-linecap="round" transform="translate(760 625) rotate(0 60.5 32.5)"><path d="M16.25 0 M16.25 0 C49.03 0.67, 82.11 1.76, 104.75 0 M16.25 0 C45.36 0.21, 74.41 1.05, 104.75 0 M104.75 0 C117.33 -0.73, 121.64 3.61, 121 16.25 M104.75 0 C117.64 0.21, 123.26 3.47, 121 16.25 M121 16.25 C119.5 23.34, 121.9 31.87, 121 48.75 M121 16.25 C121.33 27.85, 120.04 40.32, 121 48.75 M121 48.75 C122.11 58.7, 117.02 65.82, 104.75 65 M121 48.75 C121.93 59.83, 116.2 63.68, 104.75 65 M104.75 65 C74.9 65.15, 43.73 63.8, 16.25 65 M104.75 65 C83.88 66.55, 65.04 66.25, 16.25 65 M16.25 65 C3.74 64.04, 1.09 59.31, 0 48.75 M16.25 65 C7.46 63.8, -1.08 58.4, 0 48.75 M0 48.75 C1.07 41.01, 1.45 34.61, 0 16.25 M0 48.75 C-0.41 37.25, -0.13 27.32, 0 16.25 M0 16.25 C1.86 4.87, 7.25 0.29, 16.25 0 M0 16.25 C-0.41 4.09, 3.29 0.25, 16.25 0" stroke="#1e1e1e" stroke-width="1" fill="none"></path></g><g transform="translate(791.1416664123535 645) rotate(0 29.358333587646484 12.5)"><text x="29.358333587646484" y="0" font-family="Virgil, Segoe UI Emoji" font-size="20px" fill="#1e1e1e" text-anchor="middle" style="white-space: pre;" direction="ltr" dominant-baseline="text-before-edge">8B6T</text></g><g stroke-linecap="round" transform="translate(766 714) rotate(0 58.5 32)"><path d="M16 0 M16 0 C47.12 -1.76, 74.58 -1.62, 101 0 M16 0 C34.51 -0.53, 52.39 -0.79, 101 0 M101 0 C111.28 -0.28, 118.54 6.36, 117 16 M101 0 C111.26 -0.13, 116.11 4.94, 117 16 M117 16 C116.89 25.81, 115.28 40.97, 117 48 M117 16 C117.31 24.67, 117.31 32.75, 117 48 M117 48 C118.89 57.66, 111.59 65.65, 101 64 M117 48 C115 56.44, 111.52 65.12, 101 64 M101 64 C65.66 65.35, 34.06 65.48, 16 64 M101 64 C69.08 65.08, 38.53 64.89, 16 64 M16 64 C6.03 62.68, -1.56 59.22, 0 48 M16 64 C4.29 64.33, 0.12 58.83, 0 48 M0 48 C1.42 37.17, 2.18 24.57, 0 16 M0 48 C0.67 38.52, 0.47 31.27, 0 16 M0 16 C1.87 4.56, 6.18 1.08, 16 0 M0 16 C-1.45 6.26, 3.37 0.48, 16 0" stroke="#1e1e1e" stroke-width="1" fill="none"></path></g><g transform="translate(779.1833343505859 733.5) rotate(0 45.31666564941406 12.5)"><text x="45.31666564941406" y="0" font-family="Virgil, Segoe UI Emoji" font-size="20px" fill="#1e1e1e" text-anchor="middle" style="white-space: pre;" direction="ltr" dominant-baseline="text-before-edge">4D-PAM5</text></g><g stroke-linecap="round" transform="translate(963 529) rotate(0 61 30)"><path d="M15 0 M15 0 C49.21 0.55, 83.52 1.45, 107 0 M15 0 C45.08 -0.41, 72.42 0.91, 107 0 M107 0 C116.25 0.2, 123.96 5.59, 122 15 M107 0 C115.94 -2.18, 122.3 3.11, 122 15 M122 15 C121.39 22.89, 121.08 32.71, 122 45 M122 15 C122.37 23.76, 121.7 33.32, 122 45 M122 45 C120.16 55.89, 118.52 60.79, 107 60 M122 45 C119.83 57.25, 117.06 58.84, 107 60 M107 60 C77.09 57.5, 46.31 58.56, 15 60 M107 60 C77.78 59.62, 50.08 60.69, 15 60 M15 60 C3.04 59.28, -1.7 53.71, 0 45 M15 60 C3.68 60.55, -1.76 53.81, 0 45 M0 45 C-0.3 37.47, 1.05 26.38, 0 15 M0 45 C-0.13 34.04, 0.35 20.71, 0 15 M0 15 C1.95 6.92, 3.36 -0.35, 15 0 M0 15 C-1.82 3.4, 7.03 2.09, 15 0" stroke="#1e1e1e" stroke-width="1" fill="none"></path></g><g transform="translate(991.3916664123535 546.5) rotate(0 32.608333587646484 12.5)"><text x="32.608333587646484" y="0" font-family="Virgil, Segoe UI Emoji" font-size="20px" fill="#1e1e1e" text-anchor="middle" style="white-space: pre;" direction="ltr" dominant-baseline="text-before-edge">MLT-3</text></g><g stroke-linecap="round"><g transform="translate(704 506) rotate(0 6.112152242288005 119.20120964093138)"><path d="M-0.41 0.47 C1.57 40.17, 10.26 199.18, 12.64 238.73 M1.57 -0.33 C3.3 38.98, 9.51 197.1, 11.5 236.99" stroke="#1e1e1e" stroke-width="1" fill="none"></path></g></g><mask></mask><g stroke-linecap="round"><g transform="translate(719 740) rotate(0 25.60043151341381 2.4295839969068425)"><path d="M-0.94 -0.84 C7.73 0.22, 43.49 4.6, 52.14 5.7 M0.76 1.34 C9.37 2.11, 43.56 3.53, 51.79 3.94" stroke="#1e1e1e" stroke-width="1" fill="none"></path></g></g><mask></mask><g stroke-linecap="round"><g transform="translate(710 655) rotate(0 24.08936559154654 -0.9607409480959177)"><path d="M0.9 0.95 C9.08 0.36, 40.38 -2.36, 48.27 -2.87 M-0.09 0.41 C8.03 -0.11, 39.51 -1.58, 47.47 -1.8" stroke="#1e1e1e" stroke-width="1" fill="none"></path></g></g><mask></mask><g stroke-linecap="round"><g transform="translate(707 567) rotate(0 22.623449706658675 -0.04522487478328685)"><path d="M-0.97 0.53 C6.55 0.27, 38.33 -0.49, 46.22 -0.64 M0.72 -0.24 C8.01 -0.43, 37.88 0.4, 45.38 0.55" stroke="#1e1e1e" stroke-width="1" fill="none"></path></g></g><mask></mask><g stroke-linecap="round"><g transform="translate(939 506) rotate(0 0.6267535594146239 30.016297947028647)"><path d="M1.19 -0.49 C1.28 9.98, 0.95 51.58, 0.66 61.83 M0.35 -1.8 C0.33 8.44, 0.38 49.45, 0.05 60.14" stroke="#1e1e1e" stroke-width="1" fill="none"></path></g></g><mask></mask><g stroke-linecap="round"><g transform="translate(941 566) rotate(0 11.227745890244819 -0.1781319912523145)"><path d="M-0.49 1.08 C3.37 0.65, 19.19 -1.08, 22.94 -1.43 M1.46 0.6 C5.26 0.85, 19.18 -0.07, 22.49 -0.12" stroke="#1e1e1e" stroke-width="1" fill="none"></path></g></g><mask></mask><g stroke-linecap="round" transform="translate(1541 346) rotate(0 94.5 38.5)"><path d="M19.25 0 M19.25 0 C70.39 0.09, 118.67 -0.62, 169.75 0 M19.25 0 C52.38 1.03, 87.4 1.24, 169.75 0 M169.75 0 C183.5 -0.45, 188.38 8.32, 189 19.25 M169.75 0 C184.63 -2.1, 189.3 7.14, 189 19.25 M189 19.25 C187.61 28.95, 188.84 38.42, 189 57.75 M189 19.25 C189.18 30.22, 188.82 40.55, 189 57.75 M189 57.75 C189.38 71.6, 182.59 76.35, 169.75 77 M189 57.75 C187.46 68.43, 182.17 78.68, 169.75 77 M169.75 77 C118.08 77.83, 65.52 79.2, 19.25 77 M169.75 77 C134.55 74.92, 99.4 74.65, 19.25 77 M19.25 77 C8.41 75.83, 1.39 72.38, 0 57.75 M19.25 77 C8.55 75.96, -1.51 69.3, 0 57.75 M0 57.75 C-0.25 50.92, -2.12 42.54, 0 19.25 M0 57.75 C-1.18 43.31, -0.36 27.38, 0 19.25 M0 19.25 C-0.06 6.78, 7.51 2, 19.25 0 M0 19.25 C-0.83 5.58, 7.11 -1.63, 19.25 0" stroke="#1e1e1e" stroke-width="1" fill="none"></path></g><g transform="translate(1606.533332824707 372) rotate(0 28.96666717529297 12.5)"><text x="28.96666717529297" y="0" font-family="Virgil, Segoe UI Emoji" font-size="20px" fill="#1e1e1e" text-anchor="middle" style="white-space: pre;" direction="ltr" dominant-baseline="text-before-edge">B8ZS</text></g><g stroke-linecap="round" transform="translate(1553 448) rotate(0 97.5 42)"><path d="M21 0 M21 0 C65.26 2.72, 107.74 0.84, 174 0 M21 0 C55.31 -0.5, 89.8 -0.3, 174 0 M174 0 C186.33 1.91, 195.09 8.86, 195 21 M174 0 C185.7 -0.76, 196.47 8.59, 195 21 M195 21 C193.83 36.71, 196.31 50.08, 195 63 M195 21 C195.71 33.54, 195.31 45.65, 195 63 M195 63 C195.18 78.05, 187.27 83.22, 174 84 M195 63 C193.88 78.47, 190.05 83.06, 174 84 M174 84 C126.13 84.06, 74.69 86.13, 21 84 M174 84 C129.07 84.19, 85.94 84.3, 21 84 M21 84 C7.82 83.74, 0.23 76.48, 0 63 M21 84 C5.98 82.3, -0.32 76.92, 0 63 M0 63 C1.04 46.36, -0.3 31.96, 0 21 M0 63 C-0.21 51.81, 0.54 39.9, 0 21 M0 21 C-1.03 8.83, 6.54 0.43, 21 0 M0 21 C1.84 7.98, 7.18 1.69, 21 0" stroke="#1e1e1e" stroke-width="1" fill="none"></path></g><g transform="translate(1623.1166667938232 477.5) rotate(0 27.383333206176758 12.5)"><text x="27.383333206176758" y="0" font-family="Virgil, Segoe UI Emoji" font-size="20px" fill="#1e1e1e" text-anchor="middle" style="white-space: pre;" direction="ltr" dominant-baseline="text-before-edge">HDB3</text></g><g stroke-linecap="round"><g transform="translate(1481 316) rotate(0 1.7890735927969672 88.89353015244936)"><path d="M-1 -0.21 C-0.17 29.69, 3.76 149.31, 4.58 179.15 M0.67 -1.37 C1.35 28.25, 2.48 147.92, 3.41 177.64" stroke="#1e1e1e" stroke-width="1" fill="none"></path></g></g><mask></mask><g stroke-linecap="round"><g transform="translate(1485 491) rotate(0 33.28356565820059 1.1538180295377742)"><path d="M0.1 -0.62 C11.29 0.06, 56.75 2.49, 67.88 2.93 M-1.31 1.67 C9.66 2.12, 55.13 1.02, 66.86 1.29" stroke="#1e1e1e" stroke-width="1" fill="none"></path></g></g><mask></mask><g stroke-linecap="round"><g transform="translate(1482 389) rotate(0 26.872597682466676 -3.6947770956903696)"><path d="M-0.06 0.08 C9.08 -1.35, 46.19 -6.09, 55.29 -7.47 M-1.54 -0.93 C7.42 -1.68, 45.31 -5.09, 54.49 -6.17" stroke="#1e1e1e" stroke-width="1" fill="none"></path></g></g><mask></mask></svg>