<svg width="201mm" height="95mm" version="1.1" viewBox="0 0 201 95" xmlns="http://www.w3.org/2000/svg" xmlns:xlink="http://www.w3.org/1999/xlink">
 <rect width="201" height="95" fill="#fff"/>
 <g transform="translate(-3-3)" stroke-width="1.5" stroke="#000">
 <path d="m103.3 61c-56.6 .4-56.2 34.2 0 34 56.2 0 56.6-33.7 0-34z" fill="#eef" stroke-dasharray="1.5"/>
 <g id="c"><path d="m6 5.7 0 89.3c46-.4 86-55.8 85.8-89.3z" fill="#eef" stroke-dasharray="1.5"/><g fill="#fff"><circle cx="18" cy="21.6" r="9.4"/><circle cx="74.6" cy="78" r="9.4"/><circle cx="74.6" cy="21.6" r="9.4"/><circle cx="18" cy="78.2" r="9.4"/></g>
 <use transform="rotate(90 74.6 78.2)" xlink:href="#a"/><path d="m27.4 78.2h29.5"/>
 <path id="a" d="m50.3 71.5 3.3 6.7-3.3 6.7 13.4-6.7z" stroke="none" fill="#000"/><path d="m74.6 31 0 29.6"/></g>
 <use transform="translate(0-56.6)" xlink:href="#a"/><use transform="rotate(-90 17.5 77.6)" xlink:href="#a"/><use transform="rotate(135 46 66.8)" xlink:href="#a"/><use transform="matrix(-1 0 0 1 207 0)" xlink:href="#c"/><use transform="translate(57.8-56.6)" xlink:href="#a"/>
 <g id="b" fill="none"><use transform="rotate(133 74.8 82)" stroke="none" xlink:href="#a"/><path d="m88.7 72.7c8-8.7 19.2-10 34.3 5.5"/>
 <g transform="rotate(180 104 77.4)"><use transform="rotate(133.4 74.8 82)" stroke="none" xlink:href="#a"/><path d="m88.6 73c9-10.3 17.7-9.7 34.4 5"/></g></g>
 <use transform="translate(56.4-55)" xlink:href="#b"/><use transform="rotate(-90 131.8 22.2)" xlink:href="#b"/>
 <g fill="none"><path d="m27.4 21.6 29.5 0"/><path d="m18 69v-30.7"/><path d="m68 28.4-38.5 38"/><path d="m84 21.6h30.8"/></g>
 <g style="font-family:'Arial';-inkscape-font-specification:'Arial'" font-weight="bold" text-anchor="middle" font-size="12px" stroke="none"><text x="18" y="24.7">a</text><text x="74.4" y="26">b</text><text x="132" y="24.7">c</text><text x="189" y="24.7">d</text><text x="18" y="81.3">e</text>
 <text x="74.3" y="82.6">f</text><text x="132.5" y="80">g</text><text x="188.8" y="82.5">h</text></g></g></svg>