<svg version="1.1" xmlns="http://www.w3.org/2000/svg" viewBox="0 0 1655 526.5" width="1655" height="526.5" filter="invert(93%) hue-rotate(180deg)">
  <!-- svg-source:excalidraw -->
  
  <defs>
    <style class="style-fonts">
      @font-face {
        font-family: "Virgil";
        src: url("https://excalidraw.com/Virgil.woff2");
      }
      @font-face {
        font-family: "Cascadia";
        src: url("https://excalidraw.com/Cascadia.woff2");
      }
    </style>
    
  </defs>
  <rect x="0" y="0" width="1655" height="526.5" fill="#ffffff"></rect><g stroke-linecap="round" transform="translate(727 10) rotate(0 51 30.5)"><path d="M15.25 0 M15.25 0 C38.5 -0.64, 56.07 -1.15, 86.75 0 M15.25 0 C33.56 0.74, 52.63 -0.57, 86.75 0 M86.75 0 C95.06 -1.85, 102.34 4.2, 102 15.25 M86.75 0 C96.73 0.56, 101.9 3.25, 102 15.25 M102 15.25 C101.06 23.06, 100.61 30.13, 102 45.75 M102 15.25 C101.86 24.4, 102.4 34.14, 102 45.75 M102 45.75 C102.96 55.92, 98.18 60.97, 86.75 61 M102 45.75 C101.48 53.77, 98.8 62.24, 86.75 61 M86.75 61 C68.95 58.86, 50.87 62.12, 15.25 61 M86.75 61 C64.66 62.25, 40.98 61.75, 15.25 61 M15.25 61 C3.78 60.92, -0.57 54.65, 0 45.75 M15.25 61 C6.23 59.1, 2.05 57.98, 0 45.75 M0 45.75 C-1.08 35.44, -0.89 27.77, 0 15.25 M0 45.75 C0.21 36.96, 0.14 25.99, 0 15.25 M0 15.25 C-0.95 4.02, 5.66 -0.62, 15.25 0 M0 15.25 C2.28 2.84, 5.32 0.47, 15.25 0" stroke="#1e1e1e" stroke-width="1" fill="none"></path></g><g transform="translate(761.7416667938232 28) rotate(0 16.258333206176758 12.5)"><text x="16.258333206176758" y="0" font-family="Virgil, Segoe UI Emoji" font-size="20px" fill="#1e1e1e" text-anchor="middle" style="white-space: pre;" direction="ltr" dominant-baseline="text-before-edge">0,3</text></g><g stroke-linecap="round" transform="translate(158 190) rotate(0 51.5 32)"><path d="M16 0 M16 0 C35.66 0.18, 58.95 -0.26, 87 0 M16 0 C42.44 -0.41, 67.89 0.37, 87 0 M87 0 C98.45 -1.68, 102.68 4.37, 103 16 M87 0 C95.79 -1.9, 103.77 3.61, 103 16 M103 16 C102.06 24.46, 105.2 32.98, 103 48 M103 16 C102.32 25.59, 102.93 34.54, 103 48 M103 48 C101.46 57.02, 96.07 64.27, 87 64 M103 48 C101.26 56.89, 96.5 65.98, 87 64 M87 64 C68.77 63.69, 47.63 64.81, 16 64 M87 64 C68.5 63.77, 50.99 63.58, 16 64 M16 64 C4.97 62.34, -1.35 57.44, 0 48 M16 64 C6.46 63.23, 1.54 60.27, 0 48 M0 48 C0.31 40.16, 2.06 30.76, 0 16 M0 48 C-0.46 39.08, -0.14 30.98, 0 16 M0 16 C-0.61 4.31, 5.8 1.3, 16 0 M0 16 C0.96 5.09, 4.94 -1.86, 16 0" stroke="#1e1e1e" stroke-width="1" fill="none"></path></g><g transform="translate(197.34166622161865 209.5) rotate(0 12.158333778381348 12.5)"><text x="12.158333778381348" y="0" font-family="Virgil, Segoe UI Emoji" font-size="20px" fill="#1e1e1e" text-anchor="middle" style="white-space: pre;" direction="ltr" dominant-baseline="text-before-edge">0,1</text></g><g stroke-linecap="round" transform="translate(467 183) rotate(0 45 30.5)"><path d="M15.25 0 M15.25 0 C26.11 1.75, 41.72 -1.81, 74.75 0 M15.25 0 C35.4 -1.15, 55.29 -0.31, 74.75 0 M74.75 0 C83.54 -0.95, 89.47 5.28, 90 15.25 M74.75 0 C84.78 2.1, 88.69 7.37, 90 15.25 M90 15.25 C90.74 21.72, 89.85 28.75, 90 45.75 M90 15.25 C90.48 22.77, 90.42 28.63, 90 45.75 M90 45.75 C89.32 56.31, 84.96 60.13, 74.75 61 M90 45.75 C92.02 55.86, 87.11 62.7, 74.75 61 M74.75 61 C60.71 60.27, 43.36 61.03, 15.25 61 M74.75 61 C62.01 61.35, 48.86 60.37, 15.25 61 M15.25 61 C4.29 61.41, -0.46 55.27, 0 45.75 M15.25 61 C4.04 58.9, -0.28 53.68, 0 45.75 M0 45.75 C-0.02 39.61, 1.14 32.7, 0 15.25 M0 45.75 C-0.33 34.36, -0.42 22.53, 0 15.25 M0 15.25 C1.94 5.31, 5.63 -1.95, 15.25 0 M0 15.25 C-0.68 4.79, 3.8 -1.1, 15.25 0" stroke="#1e1e1e" stroke-width="1" fill="none"></path></g><g transform="translate(495.4333324432373 201) rotate(0 16.566667556762695 12.5)"><text x="16.566667556762695" y="0" font-family="Virgil, Segoe UI Emoji" font-size="20px" fill="#1e1e1e" text-anchor="middle" style="white-space: pre;" direction="ltr" dominant-baseline="text-before-edge">0,2</text></g><g stroke-linecap="round" transform="translate(10 182) rotate(0 47 30.5)"><path d="M15.25 0 M15.25 0 C39.11 -0.24, 62.93 -1.43, 78.75 0 M15.25 0 C40.72 0.92, 66.52 0.17, 78.75 0 M78.75 0 C90.09 -0.15, 94.21 3.28, 94 15.25 M78.75 0 C91.21 1.6, 93.34 4.65, 94 15.25 M94 15.25 C94.55 25.75, 93.95 37.23, 94 45.75 M94 15.25 C94.17 24.56, 93.32 33.02, 94 45.75 M94 45.75 C92.85 55.33, 88.92 59.31, 78.75 61 M94 45.75 C96.24 57.1, 88.95 59.08, 78.75 61 M78.75 61 C63.4 60.61, 48.38 60.8, 15.25 61 M78.75 61 C60.53 60.26, 43.92 61.46, 15.25 61 M15.25 61 C3.71 62.81, 0.49 54.91, 0 45.75 M15.25 61 C2.8 60.05, -1.19 55.53, 0 45.75 M0 45.75 C1.41 40.8, 1.65 30.69, 0 15.25 M0 45.75 C0.79 36.1, -0.8 27.22, 0 15.25 M0 15.25 C-0.2 3.62, 4.99 -0.19, 15.25 0 M0 15.25 C1.55 6.74, 3.17 1.5, 15.25 0" stroke="#1e1e1e" stroke-width="1" fill="none"></path></g><g transform="translate(40.66666603088379 200) rotate(0 16.33333396911621 12.5)"><text x="16.33333396911621" y="0" font-family="Virgil, Segoe UI Emoji" font-size="20px" fill="#1e1e1e" text-anchor="middle" style="white-space: pre;" direction="ltr" dominant-baseline="text-before-edge">0,0</text></g><g stroke-linecap="round" transform="translate(1006 192) rotate(0 48.5 28.5)"><path d="M14.25 0 M14.25 0 C38.34 1.48, 63.29 -1.77, 82.75 0 M14.25 0 C29.47 0.83, 45.5 -0.19, 82.75 0 M82.75 0 C91.91 1.58, 98.2 5.65, 97 14.25 M82.75 0 C91.01 -1.54, 97.16 6.62, 97 14.25 M97 14.25 C95.71 26.86, 97.74 34.42, 97 42.75 M97 14.25 C97.53 22.6, 96.22 30.17, 97 42.75 M97 42.75 C98.4 53.2, 93.03 56.43, 82.75 57 M97 42.75 C96.08 51.7, 92.73 55.34, 82.75 57 M82.75 57 C64.99 57.64, 44.71 56.05, 14.25 57 M82.75 57 C63.12 57.01, 44.23 56.21, 14.25 57 M14.25 57 C5.66 57.27, -0.34 51.97, 0 42.75 M14.25 57 C3.74 54.86, 1.73 53.88, 0 42.75 M0 42.75 C-1.33 36.51, -1.28 30.74, 0 14.25 M0 42.75 C-0.7 35, 0.75 26.49, 0 14.25 M0 14.25 C-0.23 6.47, 5.12 -2, 14.25 0 M0 14.25 C0.2 3.38, 6.83 0.67, 14.25 0" stroke="#1e1e1e" stroke-width="1" fill="none"></path></g><g transform="translate(1042.416666984558 208) rotate(0 12.083333015441895 12.5)"><text x="12.083333015441895" y="0" font-family="Virgil, Segoe UI Emoji" font-size="20px" fill="#1e1e1e" text-anchor="middle" style="white-space: pre;" direction="ltr" dominant-baseline="text-before-edge">1,3</text></g><g stroke-linecap="round" transform="translate(1410 200) rotate(0 43.5 28)"><path d="M14 0 M14 0 C35.26 2.47, 53.64 0.06, 73 0 M14 0 C32.22 -0.3, 49.69 -0.68, 73 0 M73 0 C82.71 -1.83, 88.79 4.53, 87 14 M73 0 C84.3 1.71, 87.98 2.86, 87 14 M87 14 C87.48 24.43, 85.54 33.87, 87 42 M87 14 C87.32 19.64, 87.19 25.7, 87 42 M87 42 C86.85 51.64, 82.72 55.83, 73 56 M87 42 C88.62 52.85, 82.41 54.54, 73 56 M73 56 C52.43 55.45, 32.04 56.38, 14 56 M73 56 C56.43 55.3, 40.09 55.87, 14 56 M14 56 C3.68 57.78, -1.43 51.89, 0 42 M14 56 C4 57.76, 1.31 50.45, 0 42 M0 42 C-0.73 31.79, 1.05 23.81, 0 14 M0 42 C-0.07 36.6, -0.85 29.75, 0 14 M0 14 C1.59 5.31, 5.69 -1.83, 14 0 M0 14 C-0.74 2.73, 5.37 -2.11, 14 0" stroke="#1e1e1e" stroke-width="1" fill="none"></path></g><g transform="translate(1437.0083332061768 215.5) rotate(0 16.491666793823242 12.5)"><text x="16.491666793823242" y="0" font-family="Virgil, Segoe UI Emoji" font-size="20px" fill="#1e1e1e" text-anchor="middle" style="white-space: pre;" direction="ltr" dominant-baseline="text-before-edge">2,3</text></g><g stroke-linecap="round" transform="translate(1553 200) rotate(0 46 27.5)"><path d="M13.75 0 M13.75 0 C39.85 -1.22, 64.15 0.96, 78.25 0 M13.75 0 C33.23 0.48, 53.83 0.19, 78.25 0 M78.25 0 C86.59 1.89, 91.32 4.84, 92 13.75 M78.25 0 C89.03 0.46, 92.09 3.16, 92 13.75 M92 13.75 C90.56 23.61, 93.13 33.42, 92 41.25 M92 13.75 C90.91 23.12, 92.49 31.98, 92 41.25 M92 41.25 C93.48 50.46, 86.55 55.93, 78.25 55 M92 41.25 C92.03 49.64, 88.86 55.26, 78.25 55 M78.25 55 C53.09 56.92, 31.26 54.54, 13.75 55 M78.25 55 C58.87 54.79, 38.79 55.05, 13.75 55 M13.75 55 C2.61 55.01, -0.46 51.83, 0 41.25 M13.75 55 C2.75 55.28, 0.17 50.49, 0 41.25 M0 41.25 C-0.32 30.34, -1.2 20.6, 0 13.75 M0 41.25 C0.63 30.79, 0 20.32, 0 13.75 M0 13.75 C1.33 4.63, 4.58 0.02, 13.75 0 M0 13.75 C1.07 4.03, 4.7 -1.5, 13.75 0" stroke="#1e1e1e" stroke-width="1" fill="none"></path></g><g transform="translate(1582.8166675567627 215) rotate(0 16.183332443237305 12.5)"><text x="16.183332443237305" y="0" font-family="Virgil, Segoe UI Emoji" font-size="20px" fill="#1e1e1e" text-anchor="middle" style="white-space: pre;" direction="ltr" dominant-baseline="text-before-edge">3,3</text></g><g stroke-linecap="round" transform="translate(125 323) rotate(0 42 29)"><path d="M14.5 0 M14.5 0 C30.09 -0.32, 44.38 -1.32, 69.5 0 M14.5 0 C30.61 0.02, 45.69 -0.12, 69.5 0 M69.5 0 C79.1 0.37, 84.48 6.79, 84 14.5 M69.5 0 C79.69 -1.49, 83.27 3.1, 84 14.5 M84 14.5 C85.47 23.91, 84.93 34.69, 84 43.5 M84 14.5 C83.66 23.77, 83.4 32.82, 84 43.5 M84 43.5 C82.35 52.61, 77.22 58.61, 69.5 58 M84 43.5 C84.69 53.15, 79.25 57.88, 69.5 58 M69.5 58 C51.64 56.14, 37.21 59.75, 14.5 58 M69.5 58 C54.67 57.67, 38.27 57.31, 14.5 58 M14.5 58 C3.21 57.77, 1.8 51.28, 0 43.5 M14.5 58 C6.75 56.31, 0.71 52.92, 0 43.5 M0 43.5 C-1.55 35.04, 1.97 22.32, 0 14.5 M0 43.5 C-0.33 37.66, -0.28 30.57, 0 14.5 M0 14.5 C0.46 6.47, 3.03 1.7, 14.5 0 M0 14.5 C-2.08 3.12, 6.71 1.45, 14.5 0" stroke="#1e1e1e" stroke-width="1" fill="none"></path></g><g transform="translate(150.6666660308838 339.5) rotate(0 16.33333396911621 12.5)"><text x="16.33333396911621" y="0" font-family="Virgil, Segoe UI Emoji" font-size="20px" fill="#1e1e1e" text-anchor="middle" style="white-space: pre;" direction="ltr" dominant-baseline="text-before-edge">0,0</text></g><g stroke-linecap="round" transform="translate(229 328) rotate(0 43 29)"><path d="M14.5 0 M14.5 0 C29.05 2.16, 45.12 -1.32, 71.5 0 M14.5 0 C29.85 0.2, 46.89 0.2, 71.5 0 M71.5 0 C79.32 1.66, 86.77 5.94, 86 14.5 M71.5 0 C81.47 0.72, 87.62 3.53, 86 14.5 M86 14.5 C86.89 25.77, 84.28 34.49, 86 43.5 M86 14.5 C85.09 25.31, 86.93 37.47, 86 43.5 M86 43.5 C87.88 54.4, 81.63 59.57, 71.5 58 M86 43.5 C87.27 52.33, 80.16 57.34, 71.5 58 M71.5 58 C55.71 57.73, 41.07 58.23, 14.5 58 M71.5 58 C58.98 58.63, 48.24 57.6, 14.5 58 M14.5 58 C5.31 58.17, -1.15 52.91, 0 43.5 M14.5 58 C3.26 56.61, -0.33 51.84, 0 43.5 M0 43.5 C-1.51 33.29, 1.8 23.05, 0 14.5 M0 43.5 C0.01 32.11, 0.36 21.29, 0 14.5 M0 14.5 C-1.85 3.83, 3.01 -0.91, 14.5 0 M0 14.5 C-0.97 4.36, 4.3 0.51, 14.5 0" stroke="#1e1e1e" stroke-width="1" fill="none"></path></g><g transform="translate(264.0166668891907 344.5) rotate(0 7.983333110809326 12.5)"><text x="7.983333110809326" y="0" font-family="Virgil, Segoe UI Emoji" font-size="20px" fill="#1e1e1e" text-anchor="middle" style="white-space: pre;" direction="ltr" dominant-baseline="text-before-edge">1,1</text></g><g stroke-linecap="round" transform="translate(329 323.5) rotate(0 47 30.5)"><path d="M15.25 0 M15.25 0 C28.39 -1.49, 45.21 0.6, 78.75 0 M15.25 0 C37.23 -0.26, 60.29 -0.45, 78.75 0 M78.75 0 C90.26 -0.48, 93.15 5.63, 94 15.25 M78.75 0 C87.89 -0.29, 95.43 5.67, 94 15.25 M94 15.25 C93.12 26.39, 94.09 36.11, 94 45.75 M94 15.25 C94.24 26.89, 93.91 36.27, 94 45.75 M94 45.75 C92.49 55.68, 89.94 59.04, 78.75 61 M94 45.75 C92.44 55.96, 91.12 60.52, 78.75 61 M78.75 61 C61.81 61.09, 47.96 60.44, 15.25 61 M78.75 61 C53.97 62.03, 29.03 62.05, 15.25 61 M15.25 61 C6.19 62.15, 1.44 57.69, 0 45.75 M15.25 61 C5.03 61.56, -0.24 55.4, 0 45.75 M0 45.75 C-1.7 38.84, -0.82 26.26, 0 15.25 M0 45.75 C-0.42 39.54, 0.89 32.07, 0 15.25 M0 15.25 C-0.87 3.55, 5.45 1.48, 15.25 0 M0 15.25 C-1.05 4.8, 6.22 2.29, 15.25 0" stroke="#1e1e1e" stroke-width="1" fill="none"></path></g><g transform="translate(359.6666660308838 341.5) rotate(0 16.33333396911621 12.5)"><text x="16.33333396911621" y="0" font-family="Virgil, Segoe UI Emoji" font-size="20px" fill="#1e1e1e" text-anchor="middle" style="white-space: pre;" direction="ltr" dominant-baseline="text-before-edge">0,0</text></g><g stroke-linecap="round"><g transform="translate(721 41.28777525088107) rotate(0 -319.3775649508923 67.17765174165692)"><path d="M-0.92 -0.85 C-107.52 21.46, -533.32 111.41, -639.56 134.03 M0.8 1.32 C-105.45 23.76, -530.78 112.72, -637.41 135.2" stroke="#1e1e1e" stroke-width="1" fill="none"></path></g><g transform="translate(721 41.28777525088107) rotate(0 -319.3775649508923 67.17765174165692)"><path d="M-613.34 117.59 C-620.81 124.3, -627.23 127.8, -635.96 135.05 M-612.41 118.4 C-618.72 123, -624.35 127.08, -637.26 135.87" stroke="#1e1e1e" stroke-width="1" fill="none"></path></g><g transform="translate(721 41.28777525088107) rotate(0 -319.3775649508923 67.17765174165692)"><path d="M-609.12 137.67 C-617.91 138.23, -625.61 135.61, -635.96 135.05 M-608.19 138.49 C-615.76 138, -622.46 136.97, -637.26 135.87" stroke="#1e1e1e" stroke-width="1" fill="none"></path></g></g><mask></mask><g stroke-linecap="round"><g transform="translate(720 57.53198077661891) rotate(0 -226.7791471058314 62.11892941046459)"><path d="M0.78 -0.17 C-74.93 20.89, -377.9 104.68, -453.88 125.55 M-0.27 -1.31 C-76.09 19.52, -378.39 103.26, -454.34 123.97" stroke="#1e1e1e" stroke-width="1" fill="none"></path></g><g transform="translate(720 57.53198077661891) rotate(0 -226.7791471058314 62.11892941046459)"><path d="M-430.17 108.14 C-436.42 112.1, -445.45 117.59, -455.74 124.16 M-430.61 106.86 C-437.27 111.6, -443.68 116.47, -454.97 123.39" stroke="#1e1e1e" stroke-width="1" fill="none"></path></g><g transform="translate(720 57.53198077661891) rotate(0 -226.7791471058314 62.11892941046459)"><path d="M-424.73 127.92 C-432.65 125.33, -443.49 124.22, -455.74 124.16 M-425.17 126.64 C-433.37 125.6, -441.37 124.72, -454.97 123.39" stroke="#1e1e1e" stroke-width="1" fill="none"></path></g></g><mask></mask><g stroke-linecap="round"><g transform="translate(718 68.42999598965821) rotate(0 -77.82323929294012 53.66169208160649)"><path d="M0.91 -0.61 C-25.23 17.23, -130.46 89.87, -156.55 107.93 M-0.08 1.69 C-25.88 19.09, -128.31 88.15, -154.38 106.07" stroke="#1e1e1e" stroke-width="1" fill="none"></path></g><g transform="translate(718 68.42999598965821) rotate(0 -77.82323929294012 53.66169208160649)"><path d="M-137.85 80.03 C-141.5 89.54, -147.51 98.25, -153.6 105.15 M-136.46 80.98 C-141.42 89.27, -146.38 95.56, -154.48 105.69" stroke="#1e1e1e" stroke-width="1" fill="none"></path></g><g transform="translate(718 68.42999598965821) rotate(0 -77.82323929294012 53.66169208160649)"><path d="M-126.31 97 C-133.83 101.09, -143.58 104.3, -153.6 105.15 M-124.92 97.95 C-133.11 101.44, -141.36 102.89, -154.48 105.69" stroke="#1e1e1e" stroke-width="1" fill="none"></path></g></g><mask></mask><g stroke-linecap="round"><g transform="translate(833.7021982822964 80.94431150527618) rotate(0 88.90029605724402 54.69542079379809)"><path d="M0.72 0.51 C30.26 18.78, 148.77 90.41, 178.16 108.44 M-0.36 -0.27 C28.96 18.26, 147.35 91.31, 177.33 109.66" stroke="#1e1e1e" stroke-width="1" fill="none"></path></g><g transform="translate(833.7021982822964 80.94431150527618) rotate(0 88.90029605724402 54.69542079379809)"><path d="M148.8 104.01 C157.99 104.29, 169.52 108.89, 175.63 109.8 M147.58 103 C156.4 104.73, 163.8 107.16, 178.2 110.57" stroke="#1e1e1e" stroke-width="1" fill="none"></path></g><g transform="translate(833.7021982822964 80.94431150527618) rotate(0 88.90029605724402 54.69542079379809)"><path d="M159.55 86.53 C164.5 93.5, 171.95 104.72, 175.63 109.8 M158.33 85.52 C164.17 91.9, 168.7 99.02, 178.2 110.57" stroke="#1e1e1e" stroke-width="1" fill="none"></path></g></g><mask></mask><g stroke-linecap="round"><g transform="translate(837 44.516150776166754) rotate(0 284.4754641844746 76.1281248449481)"><path d="M0.27 -0.23 C95.34 25.41, 475.15 128.07, 570 153.65 M-1.05 -1.4 C93.99 23.95, 474.65 126.63, 569.63 152.08" stroke="#1e1e1e" stroke-width="1" fill="none"></path></g><g transform="translate(837 44.516150776166754) rotate(0 284.4754641844746 76.1281248449481)"><path d="M539.36 156.5 C549.4 154.7, 556.7 153.54, 567.79 151.19 M539.63 155.12 C549.26 154.01, 558.39 151.78, 569.01 151.51" stroke="#1e1e1e" stroke-width="1" fill="none"></path></g><g transform="translate(837 44.516150776166754) rotate(0 284.4754641844746 76.1281248449481)"><path d="M544.69 136.68 C553.29 140.14, 559.18 144.24, 567.79 151.19 M544.96 135.3 C553 140.74, 560.37 145.01, 569.01 151.51" stroke="#1e1e1e" stroke-width="1" fill="none"></path></g></g><mask></mask><g stroke-linecap="round"><g transform="translate(843 27.10274546383293) rotate(0 365.97616815026197 81.80663487792773)"><path d="M-0.63 -0.95 C121.34 26.5, 610.21 137.27, 732.58 164.56 M1.24 1.17 C122.97 28.28, 609.51 135.72, 731.51 162.79" stroke="#1e1e1e" stroke-width="1" fill="none"></path></g><g transform="translate(843 27.10274546383293) rotate(0 365.97616815026197 81.80663487792773)"><path d="M700.19 166.33 C713.67 166.78, 721.55 163.87, 732.89 161.4 M702.33 167.4 C713.12 166.12, 723.35 163.69, 730.99 163.38" stroke="#1e1e1e" stroke-width="1" fill="none"></path></g><g transform="translate(843 27.10274546383293) rotate(0 365.97616815026197 81.80663487792773)"><path d="M704.63 146.3 C716.47 153.98, 722.75 158.34, 732.89 161.4 M706.76 147.37 C715.76 153.63, 724.31 158.77, 730.99 163.38" stroke="#1e1e1e" stroke-width="1" fill="none"></path></g></g><mask></mask><g stroke-linecap="round"><g transform="translate(206.60807499087963 265) rotate(0 -19.102592602928624 26.01846929963213)"><path d="M0.24 -0.98 C-6.05 7.54, -31.6 42.95, -37.88 51.66 M-1.09 1.11 C-7.46 9.77, -32.36 44.51, -38.45 53.02" stroke="#1e1e1e" stroke-width="1" fill="none"></path></g><g transform="translate(206.60807499087963 265) rotate(0 -19.102592602928624 26.01846929963213)"><path d="M-32.01 25.35 C-33.13 34.37, -36.1 40.61, -38.01 53.15 M-31.19 24.67 C-33.02 32.65, -35.31 40.62, -38.46 53.61" stroke="#1e1e1e" stroke-width="1" fill="none"></path></g><g transform="translate(206.60807499087963 265) rotate(0 -19.102592602928624 26.01846929963213)"><path d="M-15.33 37.31 C-21.3 42.92, -29.06 45.73, -38.01 53.15 M-14.51 36.62 C-21.2 41.28, -28.27 45.83, -38.46 53.61" stroke="#1e1e1e" stroke-width="1" fill="none"></path></g></g><mask></mask><g stroke-linecap="round"><g transform="translate(242.75996222671176 266) rotate(0 11.02348561325303 28.170649412083463)"><path d="M-0.6 0.27 C3.3 9.73, 18.94 47.77, 22.65 56.98 M1.29 -0.64 C5.19 8.49, 18.98 45.83, 22.26 55.37" stroke="#1e1e1e" stroke-width="1" fill="none"></path></g><g transform="translate(242.75996222671176 266) rotate(0 11.02348561325303 28.170649412083463)"><path d="M3.52 34.09 C9.27 37.98, 11.38 44.11, 24.07 53.65 M2.96 32.28 C10.82 41.59, 18.32 49.81, 22.81 55.67" stroke="#1e1e1e" stroke-width="1" fill="none"></path></g><g transform="translate(242.75996222671176 266) rotate(0 11.02348561325303 28.170649412083463)"><path d="M22.83 27.15 C24.04 32.59, 21.58 40.36, 24.07 53.65 M22.28 25.34 C23.01 37.15, 23.37 47.93, 22.81 55.67" stroke="#1e1e1e" stroke-width="1" fill="none"></path></g></g><mask></mask><g stroke-linecap="round"><g transform="translate(457 209.89672428275674) rotate(0 -42.11631930848583 53.05147976262387)"><path d="M-0.17 -0.8 C-14.14 16.55, -69.37 87.58, -83.58 105.28 M-1.72 1.39 C-15.78 19.48, -70.5 89.33, -84.06 106.91" stroke="#1e1e1e" stroke-width="1" fill="none"></path></g><g transform="translate(457 209.89672428275674) rotate(0 -42.11631930848583 53.05147976262387)"><path d="M-76.18 79.85 C-77.19 85.72, -79.91 97.08, -85.81 105.5 M-74.99 78.82 C-77.84 86.61, -80.31 95.53, -84.16 107.21" stroke="#1e1e1e" stroke-width="1" fill="none"></path></g><g transform="translate(457 209.89672428275674) rotate(0 -42.11631930848583 53.05147976262387)"><path d="M-59.99 92.45 C-66.23 94.32, -74.06 101.7, -85.81 105.5 M-58.79 91.42 C-66.43 95.57, -73.7 100.76, -84.16 107.21" stroke="#1e1e1e" stroke-width="1" fill="none"></path></g></g><mask></mask><g stroke-linecap="round" transform="translate(432.5 321) rotate(0 51.5 32)"><path d="M16 0 M16 0 C34.11 0.93, 50.03 -1.33, 87 0 M16 0 C42.11 -0.09, 69.32 -0.35, 87 0 M87 0 C99.47 0.45, 102.97 4.13, 103 16 M87 0 C99.09 2.22, 101.73 7.27, 103 16 M103 16 C103.67 28.6, 103.07 40.79, 103 48 M103 16 C103.95 25.96, 103.05 36.47, 103 48 M103 48 C102.68 59.95, 98.24 64.99, 87 64 M103 48 C101.56 56.76, 99.88 65.99, 87 64 M87 64 C69.43 61.72, 49.94 62.21, 16 64 M87 64 C70.98 63.72, 55.62 64.79, 16 64 M16 64 C6.69 65.05, 0.96 59.15, 0 48 M16 64 C6.29 62.41, 1.29 56.81, 0 48 M0 48 C1 36, -1.76 24.02, 0 16 M0 48 C0.33 35.97, -0.88 23.15, 0 16 M0 16 C1.25 3.46, 3.81 -0.28, 16 0 M0 16 C2.03 4.46, 7.3 0.22, 16 0" stroke="#1e1e1e" stroke-width="1" fill="none"></path></g><g transform="translate(471.84166622161865 340.5) rotate(0 12.158333778381348 12.5)"><text x="12.158333778381348" y="0" font-family="Virgil, Segoe UI Emoji" font-size="20px" fill="#1e1e1e" text-anchor="middle" style="white-space: pre;" direction="ltr" dominant-baseline="text-before-edge">0,1</text></g><g stroke-linecap="round" transform="translate(569 324) rotate(0 48 30.5)"><path d="M15.25 0 M15.25 0 C29.46 -0.78, 45.17 1.74, 80.75 0 M15.25 0 C38.31 -0.1, 62.83 -0.63, 80.75 0 M80.75 0 C89.4 -0.79, 96.52 5.81, 96 15.25 M80.75 0 C91.5 1.93, 97.52 5.78, 96 15.25 M96 15.25 C96.92 27.64, 96.01 39.87, 96 45.75 M96 15.25 C97.04 24.04, 95.62 34.56, 96 45.75 M96 45.75 C96.75 54.57, 90.21 60.34, 80.75 61 M96 45.75 C96.36 55.22, 92.38 60.75, 80.75 61 M80.75 61 C58.78 60.32, 33.11 59.25, 15.25 61 M80.75 61 C61.53 61.13, 42 61.04, 15.25 61 M15.25 61 C6.34 60.04, 1.21 54.05, 0 45.75 M15.25 61 C3.24 62.53, -1.37 53.65, 0 45.75 M0 45.75 C-0.04 35.22, 0.68 27.03, 0 15.25 M0 45.75 C-1.11 34.63, -0.57 21.08, 0 15.25 M0 15.25 C0.54 3.63, 6 -1.8, 15.25 0 M0 15.25 C1.66 6.83, 3.56 0.37, 15.25 0" stroke="#1e1e1e" stroke-width="1" fill="none"></path></g><g transform="translate(604.6083335876465 342) rotate(0 12.391666412353516 12.5)"><text x="12.391666412353516" y="0" font-family="Virgil, Segoe UI Emoji" font-size="20px" fill="#1e1e1e" text-anchor="middle" style="white-space: pre;" direction="ltr" dominant-baseline="text-before-edge">1,2</text></g><g stroke-linecap="round" transform="translate(693 324) rotate(0 52 32)"><path d="M16 0 M16 0 C38.24 -1.58, 61.09 1.95, 88 0 M16 0 C31.22 -0.37, 44.87 -1.3, 88 0 M88 0 C96.87 0.61, 103.33 4.59, 104 16 M88 0 C97.37 -0.26, 104.48 4.2, 104 16 M104 16 C105.36 25.59, 104.86 38.13, 104 48 M104 16 C104.32 24.77, 104.96 33.74, 104 48 M104 48 C102.14 58.32, 99.5 65.37, 88 64 M104 48 C104.07 59.05, 98.61 66.06, 88 64 M88 64 C65.11 63.81, 42.07 63.46, 16 64 M88 64 C66.71 63.62, 43.74 64.06, 16 64 M16 64 C5.42 65.55, 0.47 60.04, 0 48 M16 64 C4.96 64.7, 0.47 57.48, 0 48 M0 48 C0.21 39.95, 1.31 33.42, 0 16 M0 48 C0.32 35.51, 0.65 22.31, 0 16 M0 16 C1.65 5.7, 5.23 -1.72, 16 0 M0 16 C1.68 3.71, 7.17 1.65, 16 0" stroke="#1e1e1e" stroke-width="1" fill="none"></path></g><g transform="translate(728.2000007629395 343.5) rotate(0 16.799999237060547 12.5)"><text x="16.799999237060547" y="0" font-family="Virgil, Segoe UI Emoji" font-size="20px" fill="#1e1e1e" text-anchor="middle" style="white-space: pre;" direction="ltr" dominant-baseline="text-before-edge">2,2</text></g><g stroke-linecap="round"><g transform="translate(487.83133165245624 253) rotate(0 6.350540817319711 30.619916224246836)"><path d="M0.96 0.86 C2.93 11, 10.76 49.76, 12.7 59.97 M0 0.27 C1.7 10.59, 9.6 50.95, 11.51 60.97" stroke="#1e1e1e" stroke-width="1" fill="none"></path></g><g transform="translate(487.83133165245624 253) rotate(0 6.350540817319711 30.619916224246836)"><path d="M-2.48 34.48 C-0.05 43.76, 9.34 55.63, 11.92 61.03 M-4.17 36.01 C-0.51 42.23, 3.73 47.84, 12.27 61.69" stroke="#1e1e1e" stroke-width="1" fill="none"></path></g><g transform="translate(487.83133165245624 253) rotate(0 6.350540817319711 30.619916224246836)"><path d="M17.67 30.59 C12.55 41.48, 14.42 54.8, 11.92 61.03 M15.98 32.12 C14.47 39.22, 13.52 45.84, 12.27 61.69" stroke="#1e1e1e" stroke-width="1" fill="none"></path></g></g><mask></mask><g stroke-linecap="round"><g transform="translate(557.3781444646906 255.99404046865874) rotate(0 29.974714812287573 28.763292890094476)"><path d="M-0.82 -0.38 C9.33 9.45, 50.62 48.32, 60.77 58.09 M0.96 -1.63 C10.91 8.4, 49.33 49.01, 59.56 59.15" stroke="#1e1e1e" stroke-width="1" fill="none"></path></g><g transform="translate(557.3781444646906 255.99404046865874) rotate(0 29.974714812287573 28.763292890094476)"><path d="M31.91 45.31 C38.84 48.14, 47.07 53.27, 58.11 60.17 M33.26 46.13 C41.52 50.49, 52.13 56.14, 59.01 60.06" stroke="#1e1e1e" stroke-width="1" fill="none"></path></g><g transform="translate(557.3781444646906 255.99404046865874) rotate(0 29.974714812287573 28.763292890094476)"><path d="M46.62 30.99 C49.14 37.92, 53.06 47.23, 58.11 60.17 M47.96 31.82 C50.96 41.46, 56.26 52.29, 59.01 60.06" stroke="#1e1e1e" stroke-width="1" fill="none"></path></g></g><mask></mask><g stroke-linecap="round"><g transform="translate(563 215.33236711910564) rotate(0 84.71637532683008 50.32322835996928)"><path d="M-0.75 0.41 C27.71 17.4, 141.73 84.28, 170.19 101.06 M1.05 -0.42 C29.45 16.28, 141.45 82.58, 169.51 99.15" stroke="#1e1e1e" stroke-width="1" fill="none"></path></g><g transform="translate(563 215.33236711910564) rotate(0 84.71637532683008 50.32322835996928)"><path d="M140.71 94.51 C148.09 95.79, 155.6 97.28, 168 100.83 M140.47 94.34 C149.35 94.23, 160.16 97.06, 169.63 98.42" stroke="#1e1e1e" stroke-width="1" fill="none"></path></g><g transform="translate(563 215.33236711910564) rotate(0 84.71637532683008 50.32322835996928)"><path d="M151.16 76.85 C155.77 82.52, 160.65 88.47, 168 100.83 M150.91 76.67 C156.21 82.7, 163.45 91.56, 169.63 98.42" stroke="#1e1e1e" stroke-width="1" fill="none"></path></g></g><mask></mask><g stroke-linecap="round" transform="translate(383 453) rotate(0 42 29)"><path d="M14.5 0 M14.5 0 C33.61 -1.8, 57.89 -0.28, 69.5 0 M14.5 0 C33.13 0.05, 52.23 0.35, 69.5 0 M69.5 0 C79.72 0.28, 83.15 3.66, 84 14.5 M69.5 0 C81.46 -0.56, 86.29 3.52, 84 14.5 M84 14.5 C82.27 23.74, 83.84 29.15, 84 43.5 M84 14.5 C84.08 22.65, 83.33 29.55, 84 43.5 M84 43.5 C82.09 54.14, 79.79 56.27, 69.5 58 M84 43.5 C86.24 52.73, 80.92 57.98, 69.5 58 M69.5 58 C49.85 59.44, 34.32 58.24, 14.5 58 M69.5 58 C56.34 57.94, 44.02 57.24, 14.5 58 M14.5 58 C6.51 57.82, -0.94 54.24, 0 43.5 M14.5 58 C4.81 59.3, 0.52 52.44, 0 43.5 M0 43.5 C-1.2 33.1, -0.87 26.66, 0 14.5 M0 43.5 C-0.34 33.82, -0.69 26.39, 0 14.5 M0 14.5 C1.85 5.8, 3.93 -1.65, 14.5 0 M0 14.5 C0.92 4.92, 6.59 -0.02, 14.5 0" stroke="#1e1e1e" stroke-width="1" fill="none"></path></g><g transform="translate(408.6666660308838 469.5) rotate(0 16.33333396911621 12.5)"><text x="16.33333396911621" y="0" font-family="Virgil, Segoe UI Emoji" font-size="20px" fill="#1e1e1e" text-anchor="middle" style="white-space: pre;" direction="ltr" dominant-baseline="text-before-edge">0,0</text></g><g stroke-linecap="round" transform="translate(488 455) rotate(0 43 29)"><path d="M14.5 0 M14.5 0 C30.39 0.64, 48.79 0.26, 71.5 0 M14.5 0 C28.92 0.43, 43.26 -0.72, 71.5 0 M71.5 0 C81.86 1.38, 84.16 5.81, 86 14.5 M71.5 0 C80.86 -2.14, 85.05 5.03, 86 14.5 M86 14.5 C84.63 25.57, 84.11 37.41, 86 43.5 M86 14.5 C85.56 24.86, 85.74 33.94, 86 43.5 M86 43.5 C85.65 52.82, 79.35 59.54, 71.5 58 M86 43.5 C86.56 53.55, 79.75 57.92, 71.5 58 M71.5 58 C60.02 57.47, 47.22 58.01, 14.5 58 M71.5 58 C57.64 58.22, 42.34 58.08, 14.5 58 M14.5 58 C3.35 58.5, -1.41 51.7, 0 43.5 M14.5 58 C3.58 59.18, 0.17 51.36, 0 43.5 M0 43.5 C-1.66 38.77, 2.01 32.18, 0 14.5 M0 43.5 C0.28 36.87, 0.23 29.5, 0 14.5 M0 14.5 C1.22 5.62, 3.07 0.91, 14.5 0 M0 14.5 C-1.37 3.93, 2.56 -1.47, 14.5 0" stroke="#1e1e1e" stroke-width="1" fill="none"></path></g><g transform="translate(523.0166668891907 471.5) rotate(0 7.983333110809326 12.5)"><text x="7.983333110809326" y="0" font-family="Virgil, Segoe UI Emoji" font-size="20px" fill="#1e1e1e" text-anchor="middle" style="white-space: pre;" direction="ltr" dominant-baseline="text-before-edge">1,1</text></g><g stroke-linecap="round"><g transform="translate(458.0093930704578 396) rotate(0 -17.15618931122779 24.824800286060196)"><path d="M0.62 0.35 C-5.04 8.42, -28.27 40.84, -34.43 48.75 M-0.51 -0.51 C-6.22 7.71, -29.37 41.98, -34.94 50.16" stroke="#1e1e1e" stroke-width="1" fill="none"></path></g><g transform="translate(458.0093930704578 396) rotate(0 -17.15618931122779 24.824800286060196)"><path d="M-27.01 22.46 C-29.87 27.08, -33.35 35.86, -33.18 50.1 M-27.93 20.94 C-28.96 28.63, -31.29 38.26, -34.04 49.5" stroke="#1e1e1e" stroke-width="1" fill="none"></path></g><g transform="translate(458.0093930704578 396) rotate(0 -17.15618931122779 24.824800286060196)"><path d="M-10.03 33.97 C-17.42 35.65, -25.39 41.37, -33.18 50.1 M-10.95 32.45 C-16.95 36.69, -24.2 42.99, -34.04 49.5" stroke="#1e1e1e" stroke-width="1" fill="none"></path></g></g><mask></mask><g stroke-linecap="round"><g transform="translate(482.4084817633818 393) rotate(0 16.673525409185174 28.59468287404161)"><path d="M0.25 -0.59 C6.01 8.76, 28.65 46.77, 34.43 56.5 M-1.08 1.71 C4.57 11.2, 27.72 48.75, 33.66 57.78" stroke="#1e1e1e" stroke-width="1" fill="none"></path></g><g transform="translate(482.4084817633818 393) rotate(0 16.673525409185174 28.59468287404161)"><path d="M8.93 40.03 C15.97 46.04, 24.99 49.57, 34.86 59.63 M10.24 40.42 C16.68 44.63, 22.73 50.52, 32.87 57.94" stroke="#1e1e1e" stroke-width="1" fill="none"></path></g><g transform="translate(482.4084817633818 393) rotate(0 16.673525409185174 28.59468287404161)"><path d="M26.26 29.05 C28.36 38.26, 32.4 44.93, 34.86 59.63 M27.58 29.44 C29.12 36.74, 30.37 45.68, 32.87 57.94" stroke="#1e1e1e" stroke-width="1" fill="none"></path></g></g><mask></mask><g stroke-linecap="round" transform="translate(590 455) rotate(0 49 26)"><path d="M13 0 M13 0 C30.38 0.84, 48 2.35, 85 0 M13 0 C37.72 -0.23, 60.81 1.21, 85 0 M85 0 C94.52 0.9, 98.92 3.53, 98 13 M85 0 C93.18 -0.66, 96.67 5.1, 98 13 M98 13 C98.88 19.08, 96.47 29.13, 98 39 M98 13 C98.79 17.57, 97.98 23.17, 98 39 M98 39 C96.66 48.25, 94.62 51.62, 85 52 M98 39 C98.3 49.05, 94.86 53.11, 85 52 M85 52 C57.61 52.98, 35.2 52.49, 13 52 M85 52 C57.5 53.43, 31.25 52.71, 13 52 M13 52 C4.78 50.66, -0.31 45.72, 0 39 M13 52 C3.39 52.91, -0.21 48.9, 0 39 M0 39 C1.63 28.1, -1.41 20.39, 0 13 M0 39 C-0.29 32.41, -0.29 27.61, 0 13 M0 13 C-1.14 3.58, 5.04 -1.31, 13 0 M0 13 C0.99 4.85, 2.78 -0.8, 13 0" stroke="#1e1e1e" stroke-width="1" fill="none"></path></g><g transform="translate(631.0166668891907 468.5) rotate(0 7.983333110809326 12.5)"><text x="7.983333110809326" y="0" font-family="Virgil, Segoe UI Emoji" font-size="20px" fill="#1e1e1e" text-anchor="middle" style="white-space: pre;" direction="ltr" dominant-baseline="text-before-edge">1,1</text></g><g stroke-linecap="round" transform="translate(703 456) rotate(0 47.5 27.5)"><path d="M13.75 0 M13.75 0 C33.95 0.92, 50.99 2.11, 81.25 0 M13.75 0 C35.75 1.18, 59.13 1.02, 81.25 0 M81.25 0 C91.31 0.75, 95.88 6.28, 95 13.75 M81.25 0 C89.23 0.56, 96 4, 95 13.75 M95 13.75 C95.25 22.39, 96.1 35.31, 95 41.25 M95 13.75 C95.54 22.82, 94.87 32.25, 95 41.25 M95 41.25 C94.35 48.93, 91.4 54.26, 81.25 55 M95 41.25 C96.97 51.43, 90.03 55.38, 81.25 55 M81.25 55 C58.89 54.54, 39.09 55.13, 13.75 55 M81.25 55 C59.03 55.63, 37.86 55.89, 13.75 55 M13.75 55 C2.93 55.27, -1.46 51.65, 0 41.25 M13.75 55 C6.44 55.36, 0.19 49.28, 0 41.25 M0 41.25 C1.96 31.04, -0.54 25.19, 0 13.75 M0 41.25 C-0.99 34.2, -0.28 26.96, 0 13.75 M0 13.75 C0.59 5.66, 5.77 0.76, 13.75 0 M0 13.75 C1.48 4.55, 6.77 -1.39, 13.75 0" stroke="#1e1e1e" stroke-width="1" fill="none"></path></g><g transform="translate(733.7000007629395 471) rotate(0 16.799999237060547 12.5)"><text x="16.799999237060547" y="0" font-family="Virgil, Segoe UI Emoji" font-size="20px" fill="#1e1e1e" text-anchor="middle" style="white-space: pre;" direction="ltr" dominant-baseline="text-before-edge">2,2</text></g><g stroke-linecap="round"><g transform="translate(616.8020400470275 389) rotate(0 5.761072105372023 30.22041669345461)"><path d="M-0.85 0.44 C1.02 10.27, 10.37 49.6, 12.37 59.52 M0.9 -0.37 C2.52 9.57, 9.35 50.53, 11.44 60.81" stroke="#1e1e1e" stroke-width="1" fill="none"></path></g><g transform="translate(616.8020400470275 389) rotate(0 5.761072105372023 30.22041669345461)"><path d="M-2.97 34.97 C1.6 43.33, 8.37 55.58, 9.48 60.06 M-2.74 35.46 C1.21 43.93, 8.38 54.16, 12.39 60.84" stroke="#1e1e1e" stroke-width="1" fill="none"></path></g><g transform="translate(616.8020400470275 389) rotate(0 5.761072105372023 30.22041669345461)"><path d="M17.21 31.29 C13.83 40.96, 12.62 54.67, 9.48 60.06 M17.45 31.77 C13.7 41.49, 13.18 53.12, 12.39 60.84" stroke="#1e1e1e" stroke-width="1" fill="none"></path></g></g><mask></mask><g stroke-linecap="round"><g transform="translate(652.1125218797642 393) rotate(0 29.009293932159665 28.436528391605236)"><path d="M-0.96 -0.23 C8.54 9.14, 47.04 47.38, 56.71 57.17 M0.74 -1.4 C10.64 8.02, 49.75 48.63, 58.97 58.27" stroke="#1e1e1e" stroke-width="1" fill="none"></path></g><g transform="translate(652.1125218797642 393) rotate(0 29.009293932159665 28.436528391605236)"><path d="M31.65 43.64 C38.23 48.14, 47.93 51.69, 58.85 57.01 M31.98 45.75 C38.55 48.09, 44.59 50.53, 59.83 58.88" stroke="#1e1e1e" stroke-width="1" fill="none"></path></g><g transform="translate(652.1125218797642 393) rotate(0 29.009293932159665 28.436528391605236)"><path d="M46.44 29.42 C49.03 37.74, 54.62 45.24, 58.85 57.01 M46.77 31.53 C49.81 37.09, 52.43 42.82, 59.83 58.88" stroke="#1e1e1e" stroke-width="1" fill="none"></path></g></g><mask></mask><g stroke-linecap="round" transform="translate(853 324) rotate(0 43 29)"><path d="M14.5 0 M14.5 0 C32.51 -1.1, 50.8 -0.34, 71.5 0 M14.5 0 C32 1.15, 50.56 -0.37, 71.5 0 M71.5 0 C81.48 -1.7, 85.43 4.64, 86 14.5 M71.5 0 C82.19 1.4, 84.58 3.16, 86 14.5 M86 14.5 C87.37 23.31, 87.39 33.32, 86 43.5 M86 14.5 C86.37 19.78, 85.08 27.45, 86 43.5 M86 43.5 C86.14 53.52, 81.31 59.83, 71.5 58 M86 43.5 C85.54 53.34, 82.35 60.14, 71.5 58 M71.5 58 C59.59 57.59, 45.68 56.36, 14.5 58 M71.5 58 C57.28 58.6, 42.33 58.26, 14.5 58 M14.5 58 C3.9 57.62, -1.74 51.31, 0 43.5 M14.5 58 C5.77 58.69, -0.34 51.02, 0 43.5 M0 43.5 C-0.83 32.7, -0.4 24.32, 0 14.5 M0 43.5 C-0.54 33.73, 0.62 24.22, 0 14.5 M0 14.5 C-1.04 2.87, 5.39 0.72, 14.5 0 M0 14.5 C-2.01 3.27, 6.5 1.71, 14.5 0" stroke="#1e1e1e" stroke-width="1" fill="none"></path></g><g transform="translate(888.0166668891907 340.5) rotate(0 7.983333110809326 12.5)"><text x="7.983333110809326" y="0" font-family="Virgil, Segoe UI Emoji" font-size="20px" fill="#1e1e1e" text-anchor="middle" style="white-space: pre;" direction="ltr" dominant-baseline="text-before-edge">1,1</text></g><g stroke-linecap="round" transform="translate(959 324.5) rotate(0 48 30.5)"><path d="M15.25 0 M15.25 0 C30.65 -2.08, 44.84 -2.17, 80.75 0 M15.25 0 C33.65 -0.91, 50.1 -0.06, 80.75 0 M80.75 0 C90.41 0.68, 97.44 4.53, 96 15.25 M80.75 0 C92.6 0.11, 94.07 4.25, 96 15.25 M96 15.25 C94.51 22.86, 96.28 29.21, 96 45.75 M96 15.25 C96.35 25.13, 97.21 33.12, 96 45.75 M96 45.75 C95.24 54.36, 91.15 61.03, 80.75 61 M96 45.75 C94.23 54.54, 90.06 63.12, 80.75 61 M80.75 61 C57.37 60.67, 29.83 60.71, 15.25 61 M80.75 61 C67.11 61.12, 51.93 61.87, 15.25 61 M15.25 61 C6.65 59.88, -0.6 55.56, 0 45.75 M15.25 61 C4.89 62.95, 0.86 56.57, 0 45.75 M0 45.75 C1.54 37.6, -0.9 26.33, 0 15.25 M0 45.75 C-0.79 36.49, 0.63 25.2, 0 15.25 M0 15.25 C0.64 5.61, 4.27 -0.25, 15.25 0 M0 15.25 C2.16 4.15, 6.42 0.92, 15.25 0" stroke="#1e1e1e" stroke-width="1" fill="none"></path></g><g transform="translate(994.6083335876465 342.5) rotate(0 12.391666412353516 12.5)"><text x="12.391666412353516" y="0" font-family="Virgil, Segoe UI Emoji" font-size="20px" fill="#1e1e1e" text-anchor="middle" style="white-space: pre;" direction="ltr" dominant-baseline="text-before-edge">1,2</text></g><g stroke-linecap="round" transform="translate(1085.5 327) rotate(0 43.5 28)"><path d="M14 0 M14 0 C33.96 0.54, 52.27 0.75, 73 0 M14 0 C28.98 -0.09, 44.44 0.59, 73 0 M73 0 C80.72 0.15, 87.22 5.81, 87 14 M73 0 C80.44 1.54, 87.41 3.81, 87 14 M87 14 C85.86 22.31, 86.86 27.07, 87 42 M87 14 C87.15 24.26, 87.02 35.51, 87 42 M87 42 C86.05 49.75, 84.1 57.16, 73 56 M87 42 C85.14 50.79, 83.39 54.38, 73 56 M73 56 C54.75 57.5, 33.43 56.2, 14 56 M73 56 C53.8 56.19, 36.47 56.06, 14 56 M14 56 C2.82 57.84, 1.53 53.22, 0 42 M14 56 C3.79 56.19, 1.98 49.39, 0 42 M0 42 C0.96 30.7, -0.6 23.69, 0 14 M0 42 C0.11 32.02, -0.35 22.1, 0 14 M0 14 C-1.95 4.5, 3.48 -1.2, 14 0 M0 14 C-0.99 3.29, 6.87 0.03, 14 0" stroke="#1e1e1e" stroke-width="1" fill="none"></path></g><g transform="translate(1112.5083332061768 342.5) rotate(0 16.491666793823242 12.5)"><text x="16.491666793823242" y="0" font-family="Virgil, Segoe UI Emoji" font-size="20px" fill="#1e1e1e" text-anchor="middle" style="white-space: pre;" direction="ltr" dominant-baseline="text-before-edge">2,3</text></g><g stroke-linecap="round" transform="translate(1201 327.5) rotate(0 46 27.5)"><path d="M13.75 0 M13.75 0 C35.68 1.48, 54.86 0.09, 78.25 0 M13.75 0 C34.48 0.71, 53.51 0.09, 78.25 0 M78.25 0 C88.5 -1.12, 90.71 5.72, 92 13.75 M78.25 0 C87.08 -1.47, 93.54 6.65, 92 13.75 M92 13.75 C91.5 24.67, 91.02 30.17, 92 41.25 M92 13.75 C91.92 24.88, 91.46 35.46, 92 41.25 M92 41.25 C93.12 48.83, 88.97 56.97, 78.25 55 M92 41.25 C92.03 51.18, 87.83 53.94, 78.25 55 M78.25 55 C60.65 55.19, 37.28 56.95, 13.75 55 M78.25 55 C54.04 55.61, 28.82 55.13, 13.75 55 M13.75 55 C6.23 54.44, 1.19 48.58, 0 41.25 M13.75 55 C4.16 55.72, 1.56 50.25, 0 41.25 M0 41.25 C-0.76 36.53, -1.98 28.89, 0 13.75 M0 41.25 C-0.44 35.59, 0.18 28.7, 0 13.75 M0 13.75 C0.36 5.59, 5.97 -0.33, 13.75 0 M0 13.75 C-1.9 6.31, 2.51 2.26, 13.75 0" stroke="#1e1e1e" stroke-width="1" fill="none"></path></g><g transform="translate(1230.8166675567627 342.5) rotate(0 16.183332443237305 12.5)"><text x="16.183332443237305" y="0" font-family="Virgil, Segoe UI Emoji" font-size="20px" fill="#1e1e1e" text-anchor="middle" style="white-space: pre;" direction="ltr" dominant-baseline="text-before-edge">3,3</text></g><g stroke-linecap="round"><g transform="translate(1000.0000014854913 249.00422207221493) rotate(0 -40.79670121846095 33.437886577685774)"><path d="M0.4 0.21 C-13.26 11.22, -67.23 55.04, -80.76 66.04 M-0.85 -0.72 C-14.82 10.49, -68.5 56.2, -81.99 67.59" stroke="#1e1e1e" stroke-width="1" fill="none"></path></g><g transform="translate(1000.0000014854913 249.00422207221493) rotate(0 -40.79670121846095 33.437886577685774)"><path d="M-66.76 40.62 C-72.98 51.08, -78.63 64.32, -81.92 65.75 M-67.51 41.62 C-71.89 51.04, -78.19 62.92, -82.27 68.19" stroke="#1e1e1e" stroke-width="1" fill="none"></path></g><g transform="translate(1000.0000014854913 249.00422207221493) rotate(0 -40.79670121846095 33.437886577685774)"><path d="M-53.5 56.27 C-65 60.54, -75.94 67.54, -81.92 65.75 M-54.24 57.27 C-63.94 60.69, -75.44 66.43, -82.27 68.19" stroke="#1e1e1e" stroke-width="1" fill="none"></path></g></g><mask></mask><g stroke-linecap="round"><g transform="translate(1015.1700642978562 256) rotate(0 1.0463269175590995 30.047393810749057)"><path d="M0.71 -1.08 C0.8 9.09, 0.22 51.19, 0.2 61.17 M-0.37 0.97 C0.12 10.82, 2.47 49.9, 2.46 59.66" stroke="#1e1e1e" stroke-width="1" fill="none"></path></g><g transform="translate(1015.1700642978562 256) rotate(0 1.0463269175590995 30.047393810749057)"><path d="M-10.54 30.42 C-3.7 38.6, -4.56 46.98, 3.12 60.84 M-7.78 31.36 C-4.14 43.28, 0.63 52.67, 2.17 60.35" stroke="#1e1e1e" stroke-width="1" fill="none"></path></g><g transform="translate(1015.1700642978562 256) rotate(0 1.0463269175590995 30.047393810749057)"><path d="M9.97 29.73 C11.21 38.21, 4.76 46.79, 3.12 60.84 M12.72 30.66 C8.47 42.93, 5.34 52.58, 2.17 60.35" stroke="#1e1e1e" stroke-width="1" fill="none"></path></g></g><mask></mask><g stroke-linecap="round"><g transform="translate(1042.519361780181 259) rotate(0 46.44416337788698 29.278414076226767)"><path d="M-0.69 -0.86 C14.4 8.85, 75.86 48.15, 91.43 57.92 M1.16 1.31 C16.52 11.24, 78.43 49.8, 93.57 59.42" stroke="#1e1e1e" stroke-width="1" fill="none"></path></g><g transform="translate(1042.519361780181 259) rotate(0 46.44416337788698 29.278414076226767)"><path d="M62.81 51.32 C75.1 55.98, 85.88 59.34, 93.46 57.98 M65.23 52.58 C70.34 55.2, 76.91 56.5, 94.25 59.76" stroke="#1e1e1e" stroke-width="1" fill="none"></path></g><g transform="translate(1042.519361780181 259) rotate(0 46.44416337788698 29.278414076226767)"><path d="M73.73 33.94 C81.87 45.07, 88.55 54.94, 93.46 57.98 M76.14 35.2 C78.97 41.48, 83.18 46.53, 94.25 59.76" stroke="#1e1e1e" stroke-width="1" fill="none"></path></g></g><mask></mask><g stroke-linecap="round"><g transform="translate(1112.9030098782523 250.3893866816837) rotate(0 63.68619341100964 34.54823881465366)"><path d="M-0.13 0.17 C21.33 11.58, 107.53 57.05, 129.03 68.43 M-1.66 -0.78 C19.68 10.81, 106.74 58.13, 128.4 69.88" stroke="#1e1e1e" stroke-width="1" fill="none"></path></g><g transform="translate(1112.9030098782523 250.3893866816837) rotate(0 63.68619341100964 34.54823881465366)"><path d="M99.02 66.46 C107.98 67.62, 117.57 69.12, 130.02 68.31 M98.65 65.15 C108.19 67.25, 117.5 67.61, 128.61 69.22" stroke="#1e1e1e" stroke-width="1" fill="none"></path></g><g transform="translate(1112.9030098782523 250.3893866816837) rotate(0 63.68619341100964 34.54823881465366)"><path d="M108.81 48.43 C114.62 55.38, 121.06 62.67, 130.02 68.31 M108.44 47.12 C114.97 54.69, 121.25 60.63, 128.61 69.22" stroke="#1e1e1e" stroke-width="1" fill="none"></path></g></g><mask></mask><g stroke-linecap="round" transform="translate(888 462) rotate(0 49 26)"><path d="M13 0 M13 0 C28.44 0.03, 45.8 -0.74, 85 0 M13 0 C31.1 -0.04, 49.67 0.48, 85 0 M85 0 C94.03 1.04, 96.25 3.18, 98 13 M85 0 C91.71 1.28, 98.53 2.36, 98 13 M98 13 C97.5 19.05, 97.28 22.54, 98 39 M98 13 C97.58 23.06, 98.18 30.7, 98 39 M98 39 C98.21 48.25, 95.08 51.15, 85 52 M98 39 C96.86 46.99, 95.41 52.29, 85 52 M85 52 C61.2 50.76, 34.67 53.72, 13 52 M85 52 C59 52.01, 33.09 52.15, 13 52 M13 52 C4.47 52.69, -1.85 47.35, 0 39 M13 52 C3.16 52.47, 1.95 47.91, 0 39 M0 39 C-1.3 33.62, -1.16 27.78, 0 13 M0 39 C-1.02 30.03, 0.83 21.72, 0 13 M0 13 C0.89 2.66, 5.61 -1.65, 13 0 M0 13 C1.24 5.45, 4.27 -0.05, 13 0" stroke="#1e1e1e" stroke-width="1" fill="none"></path></g><g transform="translate(929.0166668891907 475.5) rotate(0 7.983333110809326 12.5)"><text x="7.983333110809326" y="0" font-family="Virgil, Segoe UI Emoji" font-size="20px" fill="#1e1e1e" text-anchor="middle" style="white-space: pre;" direction="ltr" dominant-baseline="text-before-edge">1,1</text></g><g stroke-linecap="round" transform="translate(1005.5 461.5) rotate(0 47.5 27.5)"><path d="M13.75 0 M13.75 0 C32.4 0.7, 50.66 1.21, 81.25 0 M13.75 0 C28.65 0.8, 41.57 -0.25, 81.25 0 M81.25 0 C88.55 1.33, 94.75 4.96, 95 13.75 M81.25 0 C89.87 -2.08, 96.34 3.63, 95 13.75 M95 13.75 C95.49 22.46, 95.12 35.53, 95 41.25 M95 13.75 C94.59 24.7, 95.01 34.69, 95 41.25 M95 41.25 C94.88 50.13, 92.25 53.86, 81.25 55 M95 41.25 C96.07 52.52, 91.93 54.49, 81.25 55 M81.25 55 C67.74 56.78, 51.28 56.07, 13.75 55 M81.25 55 C67.45 55.5, 53.34 54.19, 13.75 55 M13.75 55 C6.31 54.52, -1.08 51.62, 0 41.25 M13.75 55 C3.5 57.23, 0.84 51.83, 0 41.25 M0 41.25 C2.22 33.69, 1.13 23.56, 0 13.75 M0 41.25 C0.71 31.22, 0.2 21.83, 0 13.75 M0 13.75 C0.39 6.4, 5.26 -1.47, 13.75 0 M0 13.75 C-1.7 6.55, 5.67 1.66, 13.75 0" stroke="#1e1e1e" stroke-width="1" fill="none"></path></g><g transform="translate(1036.2000007629395 476.5) rotate(0 16.799999237060547 12.5)"><text x="16.799999237060547" y="0" font-family="Virgil, Segoe UI Emoji" font-size="20px" fill="#1e1e1e" text-anchor="middle" style="white-space: pre;" direction="ltr" dominant-baseline="text-before-edge">2,2</text></g><g stroke-linecap="round"><g transform="translate(986.5678750697202 392) rotate(0 -20.945833464492523 29.600278066950864)"><path d="M0.84 -0.84 C-6.08 9.05, -34.41 48.94, -41.64 59.02 M-0.17 1.33 C-7.27 11.37, -36.05 50.14, -42.73 60.04" stroke="#1e1e1e" stroke-width="1" fill="none"></path></g><g transform="translate(986.5678750697202 392) rotate(0 -20.945833464492523 29.600278066950864)"><path d="M-36.13 30.68 C-38.76 37.63, -40.09 46.4, -43.27 61.93 M-34.12 30.69 C-37.22 39.07, -39.86 48.63, -42.13 60.59" stroke="#1e1e1e" stroke-width="1" fill="none"></path></g><g transform="translate(986.5678750697202 392) rotate(0 -20.945833464492523 29.600278066950864)"><path d="M-19.42 42.59 C-26.87 46.2, -33.05 51.52, -43.27 61.93 M-17.41 42.6 C-25.39 47.4, -32.95 53.45, -42.13 60.59" stroke="#1e1e1e" stroke-width="1" fill="none"></path></g></g><mask></mask><g stroke-linecap="round"><g transform="translate(1006.7464492031211 391) rotate(0 17.070463674676148 29.891432950901816)"><path d="M-1.08 0.61 C4.95 10.43, 29 50.13, 35.23 59.91 M0.55 -0.12 C6.48 9.29, 28.21 48.12, 34.1 58.26" stroke="#1e1e1e" stroke-width="1" fill="none"></path></g><g transform="translate(1006.7464492031211 391) rotate(0 17.070463674676148 29.891432950901816)"><path d="M12.23 38.29 C17.9 44.51, 21.86 47.79, 34.59 59.24 M11.16 38.5 C17.42 43.36, 23.73 50.34, 34.24 58.86" stroke="#1e1e1e" stroke-width="1" fill="none"></path></g><g transform="translate(1006.7464492031211 391) rotate(0 17.070463674676148 29.891432950901816)"><path d="M30.06 28.13 C31.91 36.41, 31.96 41.92, 34.59 59.24 M28.98 28.34 C30.36 36.12, 31.69 45.93, 34.24 58.86" stroke="#1e1e1e" stroke-width="1" fill="none"></path></g></g><mask></mask><g stroke-linecap="round" transform="translate(1114 461) rotate(0 44 25.5)"><path d="M12.75 0 M12.75 0 C29.64 -1.05, 46.8 -0.87, 75.25 0 M12.75 0 C33.75 -0.73, 54.94 -0.06, 75.25 0 M75.25 0 C84.39 -1.4, 88.59 4.21, 88 12.75 M75.25 0 C83.97 -0.28, 87.25 5.62, 88 12.75 M88 12.75 C88.33 20.78, 88.71 30.62, 88 38.25 M88 12.75 C88.31 20.59, 87.99 28.63, 88 38.25 M88 38.25 C89.16 46.72, 81.94 49.4, 75.25 51 M88 38.25 C90.21 48.2, 82.25 51.34, 75.25 51 M75.25 51 C54.4 49.65, 36.19 50.17, 12.75 51 M75.25 51 C55.65 51.65, 35.28 51.3, 12.75 51 M12.75 51 C3.69 50, -0.85 48.01, 0 38.25 M12.75 51 C5.89 48.82, 1.19 46.59, 0 38.25 M0 38.25 C2.01 31.81, -0.69 20.99, 0 12.75 M0 38.25 C-0.32 31.34, 0.09 23.79, 0 12.75 M0 12.75 C-0.23 2.45, 2.94 -0.91, 12.75 0 M0 12.75 C-1.31 3, 5.94 0.66, 12.75 0" stroke="#1e1e1e" stroke-width="1" fill="none"></path></g><g transform="translate(1141.2000007629395 474) rotate(0 16.799999237060547 12.5)"><text x="16.799999237060547" y="0" font-family="Virgil, Segoe UI Emoji" font-size="20px" fill="#1e1e1e" text-anchor="middle" style="white-space: pre;" direction="ltr" dominant-baseline="text-before-edge">2,2</text></g><g stroke-linecap="round" transform="translate(1212 458) rotate(0 50.5 28.5)"><path d="M14.25 0 M14.25 0 C41.33 0.15, 70.22 1.27, 86.75 0 M14.25 0 C40.12 -0.85, 67.95 -0.15, 86.75 0 M86.75 0 C94.87 -1.06, 99.1 5.74, 101 14.25 M86.75 0 C96.24 1.8, 101.01 5.96, 101 14.25 M101 14.25 C99.65 23.16, 101.04 28.36, 101 42.75 M101 14.25 C102.08 21.72, 100.56 28.78, 101 42.75 M101 42.75 C99.66 52.91, 97.48 57.06, 86.75 57 M101 42.75 C102.37 51.14, 94.75 57.61, 86.75 57 M86.75 57 C61.91 57.18, 33.38 58.57, 14.25 57 M86.75 57 C67.14 56.61, 45.99 56.3, 14.25 57 M14.25 57 C5.8 58.55, 1.61 52.99, 0 42.75 M14.25 57 C6.32 55.54, -1.27 51.14, 0 42.75 M0 42.75 C0.93 36.61, 0.1 29.5, 0 14.25 M0 42.75 C-0.15 32.6, 0.15 23.43, 0 14.25 M0 14.25 C-1.5 3.43, 5.65 -1.85, 14.25 0 M0 14.25 C1.28 4.57, 2.62 2.11, 14.25 0" stroke="#1e1e1e" stroke-width="1" fill="none"></path></g><g transform="translate(1246.3166675567627 474) rotate(0 16.183332443237305 12.5)"><text x="16.183332443237305" y="0" font-family="Virgil, Segoe UI Emoji" font-size="20px" fill="#1e1e1e" text-anchor="middle" style="white-space: pre;" direction="ltr" dominant-baseline="text-before-edge">3,3</text></g><g stroke-linecap="round"><g transform="translate(1127.0153314674885 390) rotate(0 16.279082880854162 30.53255617893302)"><path d="M0.62 -0.4 C6.28 9.88, 27.58 51.01, 33.08 61.46 M-0.52 -1.65 C5.08 8.8, 26.64 51.81, 32.26 62.72" stroke="#1e1e1e" stroke-width="1" fill="none"></path></g><g transform="translate(1127.0153314674885 390) rotate(0 16.279082880854162 30.53255617893302)"><path d="M9.68 42.65 C14.37 48.03, 20.71 52.88, 32.96 61.01 M9.85 41.99 C15.16 46.23, 19.93 51.62, 32.8 63.13" stroke="#1e1e1e" stroke-width="1" fill="none"></path></g><g transform="translate(1127.0153314674885 390) rotate(0 16.279082880854162 30.53255617893302)"><path d="M27.98 33.35 C28.52 40.93, 30.72 47.88, 32.96 61.01 M28.15 32.7 C29.16 39.15, 29.71 46.68, 32.8 63.13" stroke="#1e1e1e" stroke-width="1" fill="none"></path></g></g><mask></mask><g stroke-linecap="round"><g transform="translate(1137.1207183386537 391) rotate(0 47.227874600983114 29.85859440039377)"><path d="M-0.44 0.52 C15.3 10.49, 78.77 50.21, 94.9 59.97 M1.52 -0.26 C17.02 9.39, 77.9 48.24, 93.65 58.36" stroke="#1e1e1e" stroke-width="1" fill="none"></path></g><g transform="translate(1137.1207183386537 391) rotate(0 47.227874600983114 29.85859440039377)"><path d="M65.24 50.86 C75.82 55.58, 84.21 55.54, 93.6 56.71 M64.03 51.57 C73.99 54.43, 81.24 56.15, 94.14 59.18" stroke="#1e1e1e" stroke-width="1" fill="none"></path></g><g transform="translate(1137.1207183386537 391) rotate(0 47.227874600983114 29.85859440039377)"><path d="M76.3 33.57 C83.19 44.05, 87.87 49.8, 93.6 56.71 M75.09 34.28 C81.77 42.36, 85.72 49.23, 94.14 59.18" stroke="#1e1e1e" stroke-width="1" fill="none"></path></g></g><mask></mask><g stroke-linecap="round" transform="translate(1341 327.5) rotate(0 44 25.5)"><path d="M12.75 0 M12.75 0 C36.85 1.41, 61.47 1.6, 75.25 0 M12.75 0 C32.17 -0.91, 52.18 -0.62, 75.25 0 M75.25 0 C82.12 1.39, 86.57 3.96, 88 12.75 M75.25 0 C85.85 -1.79, 87.18 6.01, 88 12.75 M88 12.75 C86.84 20.19, 89.56 31.6, 88 38.25 M88 12.75 C88.1 22.93, 87.71 31.42, 88 38.25 M88 38.25 C88.85 48.47, 82.01 51.1, 75.25 51 M88 38.25 C89.76 48.05, 84.02 52.51, 75.25 51 M75.25 51 C54.16 51.13, 31.02 51.67, 12.75 51 M75.25 51 C59.46 52.38, 45.01 51.52, 12.75 51 M12.75 51 C5.04 49.37, -1.73 45.07, 0 38.25 M12.75 51 C5.64 50.23, -0.42 47.29, 0 38.25 M0 38.25 C2.09 33.76, 0.96 24.37, 0 12.75 M0 38.25 C1.15 28.86, -0.01 20.96, 0 12.75 M0 12.75 C0.23 4.35, 3.81 -0.83, 12.75 0 M0 12.75 C-1.41 4.14, 2.34 2.24, 12.75 0" stroke="#1e1e1e" stroke-width="1" fill="none"></path></g><g transform="translate(1368.2000007629395 340.5) rotate(0 16.799999237060547 12.5)"><text x="16.799999237060547" y="0" font-family="Virgil, Segoe UI Emoji" font-size="20px" fill="#1e1e1e" text-anchor="middle" style="white-space: pre;" direction="ltr" dominant-baseline="text-before-edge">2,2</text></g><g stroke-linecap="round" transform="translate(1461.5 326.5) rotate(0 50.5 28.5)"><path d="M14.25 0 M14.25 0 C38.12 -0.28, 61.57 1.89, 86.75 0 M14.25 0 C30.06 -1.02, 48.18 0.04, 86.75 0 M86.75 0 C94.86 -0.06, 100.01 2.76, 101 14.25 M86.75 0 C98.25 -0.03, 102.71 6.56, 101 14.25 M101 14.25 C99.99 20.02, 101.82 29.19, 101 42.75 M101 14.25 C101.58 20.44, 101.67 27.03, 101 42.75 M101 42.75 C101.85 51.1, 97.87 57.49, 86.75 57 M101 42.75 C102.38 53.44, 94.92 57.71, 86.75 57 M86.75 57 C59.61 57.76, 33.12 56.03, 14.25 57 M86.75 57 C70.95 57.25, 56.06 56.88, 14.25 57 M14.25 57 C3.27 58.59, 1.9 53.98, 0 42.75 M14.25 57 C5.63 55.35, 1.07 50.73, 0 42.75 M0 42.75 C-0.63 32.25, -0.05 20.32, 0 14.25 M0 42.75 C0.07 34, 1.09 26.91, 0 14.25 M0 14.25 C0.62 5.65, 5.67 -0.62, 14.25 0 M0 14.25 C-0.5 6.1, 3.52 1.48, 14.25 0" stroke="#1e1e1e" stroke-width="1" fill="none"></path></g><g transform="translate(1495.8166675567627 342.5) rotate(0 16.183332443237305 12.5)"><text x="16.183332443237305" y="0" font-family="Virgil, Segoe UI Emoji" font-size="20px" fill="#1e1e1e" text-anchor="middle" style="white-space: pre;" direction="ltr" dominant-baseline="text-before-edge">3,3</text></g><g stroke-linecap="round"><g transform="translate(1421.8910438140624 264) rotate(0 -5.037317478885257 29.12541514194571)"><path d="M-0.78 1.09 C-2.53 10.28, -8.67 47.07, -10.16 56.06 M1.01 0.62 C-0.93 9.94, -9.21 48.43, -11.09 57.63" stroke="#1e1e1e" stroke-width="1" fill="none"></path></g><g transform="translate(1421.8910438140624 264) rotate(0 -5.037317478885257 29.12541514194571)"><path d="M-13.29 29.52 C-13.46 39.59, -13.87 46.39, -12.77 58.84 M-15.67 28.71 C-13.29 37.9, -12.15 44.84, -11.81 58.1" stroke="#1e1e1e" stroke-width="1" fill="none"></path></g><g transform="translate(1421.8910438140624 264) rotate(0 -5.037317478885257 29.12541514194571)"><path d="M5.76 33.53 C-0.74 42.15, -7.45 47.62, -12.77 58.84 M3.38 32.72 C0.69 40.89, -3.24 46.76, -11.81 58.1" stroke="#1e1e1e" stroke-width="1" fill="none"></path></g></g><mask></mask><g stroke-linecap="round"><g transform="translate(1463.0279092452815 267) rotate(0 20.141424323472165 25.408770149606298)"><path d="M-1.15 -0.84 C5.58 7.61, 32.25 41.51, 39.21 50.08 M0.45 1.33 C7.65 10.05, 34.82 43.79, 41.43 51.66" stroke="#1e1e1e" stroke-width="1" fill="none"></path></g><g transform="translate(1463.0279092452815 267) rotate(0 20.141424323472165 25.408770149606298)"><path d="M14.22 34.81 C20.95 40.53, 27.07 40.96, 41.73 52.3 M16.15 36.14 C24.65 41.58, 32.71 47.65, 40.99 51.5" stroke="#1e1e1e" stroke-width="1" fill="none"></path></g><g transform="translate(1463.0279092452815 267) rotate(0 20.141424323472165 25.408770149606298)"><path d="M30.09 21.8 C33.51 30.03, 36.39 33.12, 41.73 52.3 M32.02 23.13 C35.2 32.98, 37.81 43.51, 40.99 51.5" stroke="#1e1e1e" stroke-width="1" fill="none"></path></g></g><mask></mask></svg>